<svg xmlns="http://www.w3.org/2000/svg" viewBox="0 0 197.81 211.96"><defs><style>.cls-1{fill:#ffc01b;}</style></defs><title>A5</title><g id="Who_we_are" data-name="Who we are"><rect class="cls-1" x="47.78" y="161.59" width="27.28" height="15.1"/><rect class="cls-1" x="79.32" y="132.26" width="27.28" height="44.43"/><rect class="cls-1" x="110.87" y="91.71" width="27.28" height="84.98"/><rect class="cls-1" x="6.95" y="57.77" width="0.6" height="93.96"/><rect class="cls-1" x="18.84" y="197.4" width="115.62" height="0.69"/><rect class="cls-1" x="189.9" y="57.99" width="0.6" height="73.12"/><rect class="cls-1" x="13.12" y="191.2" width="159.68" height="0.69"/><rect class="cls-1" x="99.82" y="187.37" width="0.6" height="17.28"/><path class="cls-1" d="M102.47,211.6H97.84v-7.29h4.63Zm-4-.69h3.43V205H98.44Z"/><path class="cls-1" d="M26.63,46H26V45.1h.6Zm0-3.68H26v-.92h.6Zm0-3.68H26v-.92h.6Zm0-3.68H26v-.92h.6Zm0-3.68H26v-.92h.6Zm0-3.68H26V26.7h.6Zm0-3.68H26V23h.6Zm0-3.68H26v-.92h.6Zm0-3.68H26v-.92h.6Zm0-3.68H26V12h.6Zm0-3.68H26V8.3h.6Zm0-3.68H26V4.62h.6Zm0-3.68H26V.94h.6Z"/><path class="cls-1" d="M169.6,46H169V45.1h.6Zm0-3.68H169v-.92h.6Zm0-3.68H169v-.92h.6Zm0-3.68H169v-.92h.6Zm0-3.68H169v-.92h.6Zm0-3.68H169V26.7h.6Zm0-3.68H169V23h.6Zm0-3.68H169v-.92h.6Zm0-3.68H169v-.92h.6Zm0-3.68H169V12h.6Zm0-3.68H169V8.3h.6Zm0-3.68H169V4.62h.6Zm0-3.68H169V.94h.6Z"/><path class="cls-1" d="M137.17,153.74l-.39-.36.2-.29,0-.06.4-.47.43.48Zm-2.27-2.1-.62-.58.38-.53.62.58Zm4.54-.58-.43-.48.55-.66.44.48Zm-7-1.73-.63-.58.38-.53.63.57Zm9.26-.92-.43-.48.56-.66.43.48ZM129.91,147l-.62-.58.37-.54.63.58Zm14-1.25-.44-.48.56-.66.44.48Zm-16.5-1.06-.62-.58.38-.54.62.58Zm18.73-1.58-.43-.48.56-.66.43.48Zm-21.22-.74-.63-.57.38-.54.62.58Zm23.46-1.9-.44-.48.56-.66.44.48Zm-26-.41-.63-.58.38-.53.63.58Zm28.19-2.23-.43-.48.56-.66.43.48Zm-30.69-.08-.62-.58.37-.53.63.57Zm-2.5-2.31-.62-.58.38-.54.62.58Zm35.43-.25-.44-.48.56-.67.44.49Zm-37.93-2.06-.62-.58.38-.54.62.58Zm40.16-.59-.43-.48.56-.66.43.48Zm-42.65-1.73-.63-.57.38-.54.63.58Zm44.89-.91-.43-.48.55-.66.44.48Zm2.23-2.64-.43-.48.56-.66.43.48Z"/><polygon class="cls-1" points="26.9 170.66 26.48 170.17 54.02 139.29 74.22 154.28 104.58 112.66 135.53 141.31 169.25 101.31 169.68 101.78 135.58 142.24 104.66 113.62 74.34 155.19 54.09 140.17 26.9 170.66"/><polygon class="cls-1" points="170.09 106.38 169.49 106.38 169.49 101.63 164.85 101.63 164.85 100.94 170.09 100.94 170.09 106.38"/><path class="cls-1" d="M34.91,79.23a2.8,2.8,0,0,1,0-5.54,2.8,2.8,0,0,1,0,5.54Zm0-4.85a2.1,2.1,0,1,0,1.81,2.08A2,2,0,0,0,34.91,74.38Z"/><rect class="cls-1" x="42.49" y="76.11" width="39.85" height="0.69"/><path class="cls-1" d="M34.91,89.7a2.79,2.79,0,0,1,0-5.53,2.79,2.79,0,0,1,0,5.53Zm0-4.84a2.09,2.09,0,1,0,1.81,2.07A2,2,0,0,0,34.91,84.86Z"/><rect class="cls-1" x="42.49" y="86.59" width="39.85" height="0.69"/><path class="cls-1" d="M34.91,100.17a2.79,2.79,0,0,1,0-5.53,2.79,2.79,0,0,1,0,5.53Zm0-4.84a2.09,2.09,0,1,0,1.81,2.07A2,2,0,0,0,34.91,95.33Z"/><rect class="cls-1" x="42.49" y="97.06" width="39.85" height="0.69"/><path class="cls-1" d="M34.91,111a2.79,2.79,0,0,1,0-5.53,2.79,2.79,0,0,1,0,5.53Zm0-4.84a2.09,2.09,0,1,0,1.81,2.08A2,2,0,0,0,34.91,106.14Z"/><rect class="cls-1" x="42.49" y="107.87" width="39.85" height="0.69"/><path class="cls-1" d="M196.86,55.83H.88V48.18h196ZM1.48,55.14H196.25V48.87H1.48Z"/></g></svg>