<svg xmlns="http://www.w3.org/2000/svg" viewBox="0 0 24.8 29.97"><defs><style>.cls-1{fill:#eca470;}.cls-2{fill:#f68a2e;}</style></defs><title>Arrow-Header</title><g id="About"><path class="cls-1" d="M11.16,13.7.54,3.06A1.74,1.74,0,0,1,.54.61,1.73,1.73,0,0,1,3,.61L12.38,10,21.77.61a1.71,1.71,0,0,1,2.44,0,1.73,1.73,0,0,1,0,2.45L13.6,13.7a1.72,1.72,0,0,1-1.22.51A1.69,1.69,0,0,1,11.16,13.7Z"/><path class="cls-2" d="M11.16,29.37.54,18.73a1.74,1.74,0,0,1,0-2.45,1.73,1.73,0,0,1,2.45,0l9.39,9.41,9.39-9.41a1.73,1.73,0,1,1,2.44,2.45L13.6,29.37a1.72,1.72,0,0,1-1.22.51A1.69,1.69,0,0,1,11.16,29.37Z"/></g></svg>