<svg xmlns="http://www.w3.org/2000/svg" viewBox="0 0 50.05 50.11"><defs><style>.cls-1{fill:#f68a2e;}.cls-2{opacity:0.79;}.cls-3{fill:#fff;}</style></defs><title>Arrow-Footer</title><g id="About"><rect class="cls-1" x="0.02" y="0.04" width="50" height="50" rx="6.19"/><g class="cls-2"><path class="cls-3" d="M25.76,24.14l6.41,6.42a1.06,1.06,0,0,1,0,1.48,1,1,0,0,1-1.48,0L25,26.36,19.36,32a1,1,0,0,1-1.48,0,1.06,1.06,0,0,1,0-1.48l6.41-6.42a1.05,1.05,0,0,1,1.47,0Z"/></g><path class="cls-3" d="M25.76,14.69l6.41,6.42a1,1,0,0,1-1.48,1.48L25,16.9l-5.66,5.69a1,1,0,1,1-1.48-1.48l6.41-6.42a1,1,0,0,1,1.47,0Z"/></g></svg>