<?xml version="1.0" encoding="utf-8"?>
<!-- Generator: Adobe Illustrator 23.0.4, SVG Export Plug-In . SVG Version: 6.00 Build 0)  -->
<svg version="1.1" id="Layer_1" xmlns="http://www.w3.org/2000/svg" xmlns:xlink="http://www.w3.org/1999/xlink" x="0px" y="0px"
	 viewBox="0 0 30 30" style="enable-background:new 0 0 30 30;" xml:space="preserve">
<style type="text/css">
	.st0{fill:#F0F1F1;}
</style>
<title>Artboard 2</title>
<g id="Footer">
	<path class="st0" d="M15,0C6.7,0,0,6.7,0,15s6.7,15,15,15s15-6.7,15-15c0,0,0,0,0,0C30,6.7,23.3,0,15,0z M18.8,15h-2.5v8.8h-3.7V15
		h-1.7v-3.1h1.7v-2c-0.1-1.9,1.3-3.6,3.2-3.7c0.2,0,0.4,0,0.5,0h2.7v3h-2c-0.4,0-0.8,0.3-0.8,0.7c0,0.1,0,0.1,0,0.2v1.8h2.8L18.8,15
		z"/>
</g>
</svg>
