<svg xmlns="http://www.w3.org/2000/svg" viewBox="0 0 165 150"><defs><style>.cls-1{fill:none;stroke:#0288c2;stroke-miterlimit:10;}.cls-2{fill:#fed15e;}.cls-3{fill:#fff;}.cls-4{fill:#0288c2;}.cls-5{fill:#49a8d1;}.cls-6{fill:#cacbcc;}.cls-7{fill:#5db4ce;}</style></defs><title>Icon 1</title><g id="Innovations"><rect class="cls-1" x="77.63" y="41.54" width="67.47" height="88.43"/><rect class="cls-2" x="60.45" y="30.29" width="76.89" height="92.54"/><rect class="cls-3" x="65.47" y="35.76" width="65.19" height="9.12"/><rect class="cls-3" x="67.75" y="51.26" width="30.09" height="31.91"/><rect class="cls-4" x="104.67" y="53.31" width="27.35" height="1.38"/><rect class="cls-4" x="104.37" y="59.38" width="27.35" height="1.38"/><rect class="cls-4" x="104.06" y="65.46" width="27.35" height="1.38"/><rect class="cls-4" x="68.66" y="38.64" width="22.34" height="1.38"/><rect class="cls-3" x="104.22" y="73.6" width="12.16" height="24.92"/><rect class="cls-3" x="121.23" y="73.6" width="12.16" height="24.92"/><rect class="cls-5" x="66.23" y="89.71" width="32.82" height="8.51"/><path class="cls-6" d="M87.5,69.5a7.45,7.45,0,1,1-7.44-7.45A7.44,7.44,0,0,1,87.5,69.5Z"/><path class="cls-6" d="M94.19,59.77a3.5,3.5,0,1,1-3.5-3.49A3.5,3.5,0,0,1,94.19,59.77Z"/><rect class="cls-4" x="123.97" y="38.64" width="4.25" height="1.38"/><rect class="cls-3" x="67.14" y="103.08" width="13.37" height="13.37"/><rect class="cls-5" x="88.41" y="103.08" width="13.37" height="13.37"/><rect class="cls-3" x="109.69" y="103.08" width="13.37" height="13.37"/><polygon class="cls-7" points="27.56 77.03 35.62 68.97 42.81 76.16 34.6 84.37 27.56 77.03"/><polygon class="cls-4" points="35.09 84.86 34.11 83.88 41.83 76.16 35.62 69.94 28.05 77.52 27.07 76.54 35.62 67.99 43.79 76.16 35.09 84.86"/><path class="cls-7" d="M18.08,100.89l-1.39,1.39a5.08,5.08,0,0,1-7.19,0h0a5.08,5.08,0,0,1,0-7.19L11,93.57Z"/><path class="cls-4" d="M13.09,104.46A5.78,5.78,0,0,1,9,94.6l1.52-1.52,1,1L10,95.58a4.39,4.39,0,1,0,6.21,6.21l1.39-1.39,1,1-1.39,1.39A5.76,5.76,0,0,1,13.09,104.46Z"/><rect class="cls-4" x="37.41" y="66.14" width="15.47" height="1.38" transform="translate(-34.04 51.51) rotate(-45.01)"/><path class="cls-4" d="M66.23,68.67a22,22,0,1,1,22-22A22,22,0,0,1,66.23,68.67Zm0-42.62A20.62,20.62,0,1,0,86.85,46.67,20.64,20.64,0,0,0,66.23,26.05Z"/><rect class="cls-7" x="24.05" y="105.62" width="23.92" height="21.01"/><polygon class="cls-4" points="48.71 126.63 47.24 126.63 47.24 106.31 24.79 106.31 24.79 126.63 23.32 126.63 23.32 104.92 48.71 104.92 48.71 126.63"/><path class="cls-4" d="M26.05,84.73l-5.95-6a3.56,3.56,0,0,1,4.35-5.57l-.71,1.18a2.18,2.18,0,0,0-2.67,3.41l5.95,6Z"/><path class="cls-4" d="M21.72,88.43l-5.95-6a3.56,3.56,0,0,1,4.36-5.57l-.71,1.19a2.18,2.18,0,0,0-2.67,3.4l5.95,6Z"/><path class="cls-4" d="M17.86,92.7l-5.95-6a3.55,3.55,0,0,1,0-5,3.55,3.55,0,0,1,4.36-.53l-.72,1.18a2.19,2.19,0,0,0-2.67.33,2.2,2.2,0,0,0,0,3.08l6,6Z"/><path class="cls-4" d="M23.7,106.68,8.17,91.15a3.56,3.56,0,0,1,4.36-5.57l-.71,1.19a2.18,2.18,0,0,0-2.67,3.4L24.68,105.7Z"/><rect class="cls-4" x="30.03" y="70.85" width="1.38" height="18.97" transform="translate(-48.18 46.1) rotate(-45.62)"/><polygon class="cls-4" points="45.9 105.9 44.51 105.9 44.52 86.39 38.23 80.8 39.22 79.82 45.95 85.81 45.9 86.48 45.9 105.9"/><rect class="cls-4" x="147.24" y="53.87" width="10.63" height="1.38"/><rect class="cls-4" x="151.86" y="49.25" width="1.38" height="10.63"/><rect class="cls-4" x="26.9" y="42.32" width="10.63" height="1.38"/><rect class="cls-4" x="31.53" y="37.7" width="1.38" height="10.63"/><path class="cls-4" d="M60.3,127.17a4.8,4.8,0,1,1,4.8-4.8A4.8,4.8,0,0,1,60.3,127.17Zm0-8.21a3.42,3.42,0,1,0,3.41,3.41A3.41,3.41,0,0,0,60.3,119Z"/><rect class="cls-4" x="83.1" y="20.03" width="28.72" height="1.38"/><rect class="cls-4" x="118.2" y="25.5" width="15.04" height="1.38"/><rect class="cls-4" x="16.09" y="56.95" width="14.59" height="1.38"/></g></svg>