<svg xmlns="http://www.w3.org/2000/svg" viewBox="0 0 165 150"><defs><style>.cls-1,.cls-6{fill:none;stroke-miterlimit:10;}.cls-1{stroke:#cee7f3;}.cls-2{fill:#cee7f3;}.cls-3{fill:#fff;}.cls-4{fill:#f7d45a;}.cls-5{fill:#0288c2;}.cls-6{stroke:#fff;stroke-width:1.3px;}.cls-7{fill:#f68a2e;}</style></defs><title>Icon 2</title><g id="Innovations"><rect class="cls-1" x="110.66" y="81.49" width="48.96" height="35.73"/><path class="cls-2" d="M127.58,110.45a.74.74,0,0,1-.73.74H121a.74.74,0,0,1,0-1.47h5.89A.73.73,0,0,1,127.58,110.45Zm26.25-.52L150,106.06a.74.74,0,1,0-1,1l2.61,2.62H136.38a8.39,8.39,0,1,1,8.39-8.38,8.3,8.3,0,0,1-1.17,4.26l-.21.34a.73.73,0,0,0,1.21.83l0,0,.25-.4a9.85,9.85,0,1,0-8.49,4.84h15.16l-2.61,2.62a.73.73,0,0,0,0,1,.75.75,0,0,0,1,0l3.87-3.86a.74.74,0,0,0,0-1v0Z"/><rect class="cls-3" x="30.86" y="40.12" width="93.73" height="68.17"/><rect class="cls-4" x="36.71" y="44.74" width="83.01" height="59.35"/><rect class="cls-5" x="91.32" y="56.43" width="23.53" height="1.45"/><rect class="cls-5" x="91.32" y="62.52" width="23.53" height="1.45"/><rect class="cls-5" x="91.32" y="68.61" width="23.53" height="1.45"/><rect class="cls-5" x="91.32" y="74.69" width="23.53" height="1.45"/><rect class="cls-5" x="91.32" y="80.78" width="23.53" height="1.45"/><path class="cls-5" d="M125.32,109H30.13V39.39h95.19Zm-93.73-1.45h92.27V40.85H31.59Z"/><rect class="cls-3" x="76.8" y="107.48" width="1.45" height="17.45"/><rect class="cls-3" x="62.92" y="124.2" width="28" height="1.45"/><path class="cls-5" d="M66.89,64.11H5.38V19.35H66.89V64.11Zm-60-1.45H65.43V20.8H6.84Z"/><rect class="cls-3" x="134.89" y="68.57" width="9.46" height="1.45"/><rect class="cls-3" x="138.9" y="64.56" width="1.45" height="9.46"/><rect class="cls-3" x="20.74" y="112.93" width="9.46" height="1.45"/><rect class="cls-3" x="24.74" y="108.93" width="1.45" height="9.46"/><path class="cls-3" d="M79.14,34.9a4.52,4.52,0,1,1,4.52-4.52A4.53,4.53,0,0,1,79.14,34.9Zm0-7.58a3.06,3.06,0,1,0,3.06,3.06A3.07,3.07,0,0,0,79.14,27.32Z"/><path class="cls-5" d="M19.9,84.13A3.17,3.17,0,1,1,23.07,81,3.17,3.17,0,0,1,19.9,84.13Zm0-4.87A1.71,1.71,0,1,0,21.61,81,1.7,1.7,0,0,0,19.9,79.26Z"/><path class="cls-3" d="M143.79,51.13A3.17,3.17,0,1,1,147,48,3.17,3.17,0,0,1,143.79,51.13Zm0-4.87A1.71,1.71,0,1,0,145.5,48,1.7,1.7,0,0,0,143.79,46.26Z"/><rect class="cls-3" x="86.72" y="116.76" width="8.11" height="1.45"/><rect class="cls-3" x="79.14" y="129.2" width="27.59" height="1.45"/><rect class="cls-3" x="100.24" y="29.11" width="11.9" height="1.45"/><polygon class="cls-3" points="49.28 124.71 48.46 123.51 54.72 119.2 48.55 114.75 49.4 113.58 57.24 119.22 49.28 124.71"/><rect class="cls-3" x="36.31" y="118.41" width="19.67" height="1.45"/><path class="cls-5" d="M30.15,30.91a.88.88,0,1,0-.68-1.62,13.58,13.58,0,0,0-4.3,22.09.91.91,0,0,0,.63.26.89.89,0,0,0,.62-1.51,11.81,11.81,0,0,1,3.73-19.22Z"/><path class="cls-5" d="M48.93,58.54a.87.87,0,0,0,.63.26.85.85,0,0,0,.62-.26l3.4-3.4a.88.88,0,0,0,0-1.25l-3.4-3.4a.88.88,0,0,0-1.25,1.24l1.86,1.86H44.51a.88.88,0,0,0,0,1.76h6.37l-2,1.95A.88.88,0,0,0,48.93,58.54Z"/><path class="cls-5" d="M16.86,58.23H22.6a.88.88,0,0,0,.88-.88v-2H34.77a13.56,13.56,0,0,0,13-9.81A4.66,4.66,0,0,0,51.74,42,.89.89,0,0,0,51.09,41,.88.88,0,0,0,50,41.6,2.92,2.92,0,1,1,47.19,38a2.94,2.94,0,0,1,2,.81l-1.42,1.41-.34-.47a.88.88,0,1,0-1.43,1L47,42.08a.9.9,0,0,0,.64.37h.07a.84.84,0,0,0,.62-.26l4.41-4.39a.86.86,0,0,0,0-1.24.87.87,0,0,0-1.24,0l-1,1a4.67,4.67,0,0,0-3.25-1.33h0a13.5,13.5,0,0,0-12-8l1.92-1.92a.88.88,0,0,0-1.24-1.24l-3.41,3.4a.89.89,0,0,0,0,1.25l3.41,3.4a.89.89,0,0,0,.62.26.88.88,0,0,0,.62-1.5L35.2,30A11.76,11.76,0,0,1,45.38,36.6,4.67,4.67,0,0,0,46,45.42a11.79,11.79,0,0,1-11.23,8.17H23.48v-2a.87.87,0,0,0-.88-.88H16.86a.87.87,0,0,0-.88.88v5.75A.88.88,0,0,0,16.86,58.23Zm.88-5.75h4v4h-4Z"/><polyline class="cls-6" points="66.04 39.35 66.04 20.05 5.98 20.05 5.98 63.41 30.07 63.41"/><polygon class="cls-3" points="125.55 39.42 123.74 39.39 132.89 27.37 134.09 28.3 125.55 39.42"/><polyline class="cls-6" points="125.83 30.71 133.64 27.48 134.01 35.99"/><path class="cls-7" d="M63.57,84.41a7.72,7.72,0,1,0-8-7.71A7.87,7.87,0,0,0,63.57,84.41ZM59,76.15a.82.82,0,0,1,1.13,0h0l2.24,2.16L67,73.84a.81.81,0,0,1,1.14,0,.76.76,0,0,1,0,1.09l-5.22,5a.82.82,0,0,1-1.14,0h0L59,77.24a.75.75,0,0,1,0-1.09Z"/><path class="cls-5" d="M80.43,76.7H82l-1.75-2.1h0l-.8-1a.82.82,0,0,0-1.13-.12.49.49,0,0,0-.13.12l-1.14,1.32L75.62,76.7h1.6A13.39,13.39,0,0,1,63.57,89.81H42.69a.78.78,0,0,0-.8.77v1.54a.78.78,0,0,0,.8.77H63.57C72.88,92.89,80.43,85.64,80.43,76.7Z"/><path class="cls-3" d="M46.85,78.8l.81,1a.8.8,0,0,0,1.12.12.49.49,0,0,0,.13-.12L50,78.48l1.51-1.78H49.92A13.4,13.4,0,0,1,63.56,63.57,13.7,13.7,0,0,1,75.92,71.1a.82.82,0,0,0,1.07.36.79.79,0,0,0,.23-.16l1.21-1.16a.74.74,0,0,0,.15-.89,17.21,17.21,0,0,0-22.7-7A16.12,16.12,0,0,0,46.71,76.7H45.1l1.75,2.09Z"/><path class="cls-5" d="M84.45,90.75l-3.21-2.49v1.55H76a19.59,19.59,0,0,1-1.6,1.25,18.28,18.28,0,0,1-3.3,1.83H81.24v1.54L84.45,92a.74.74,0,0,0,.12-1.08A.46.46,0,0,0,84.45,90.75Z"/><path class="cls-5" d="M50.77,81.28l-2.46,2.36a16.22,16.22,0,0,0,3.46,4.62h5.38A13.25,13.25,0,0,1,50.77,81.28Z"/></g></svg>