<svg xmlns="http://www.w3.org/2000/svg" viewBox="0 0 165 150"><defs><style>.cls-1{fill:#0288c2;}.cls-2{fill:#e0eff5;}.cls-3{fill:#5db4ce;}.cls-4{fill:#fff;}.cls-5{fill:#9750a3;}.cls-6{fill:#f68a2e;}.cls-7{fill:#ffc01b;}</style></defs><title>Icon 3</title><g id="Innovations"><path class="cls-1" d="M107.37,134.52H9.44v-87h97.93Zm-96.5-1.43h95.07V49H10.87Z"/><rect class="cls-2" x="16.59" y="26.88" width="100.6" height="95.58"/><path class="cls-3" d="M138.57,115.86a9.75,9.75,0,1,1-9.75-9.75A9.75,9.75,0,0,1,138.57,115.86Z"/><path class="cls-4" d="M93.93,27.2a11,11,0,1,1-11-11A11,11,0,0,1,93.93,27.2Z"/><path class="cls-1" d="M82.93,38.92A11.72,11.72,0,1,1,94.64,27.2,11.74,11.74,0,0,1,82.93,38.92Zm0-22A10.29,10.29,0,1,0,93.22,27.2,10.31,10.31,0,0,0,82.93,16.91Z"/><rect class="cls-4" x="29.16" y="46.38" width="30.81" height="30.81"/><path class="cls-1" d="M60.69,77.9H28.45V45.66H60.69ZM29.88,76.47H59.26V47.09H29.88Z"/><rect class="cls-5" x="62.81" y="96.37" width="30.81" height="30.81"/><path class="cls-1" d="M94.33,127.89H62.09V95.65H94.33Zm-30.81-1.42H92.9V97.08H63.52Z"/><rect class="cls-4" x="108.71" y="42.92" width="30.81" height="30.81"/><path class="cls-1" d="M140.23,74.44H108V42.2h32.24ZM109.42,73H138.8V43.63H109.42Z"/><polygon class="cls-1" points="76.41 95.42 74.98 95.42 74.98 62.81 59.98 62.81 59.98 61.38 76.41 61.38 76.41 95.42"/><polygon class="cls-1" points="125.45 115 93.93 115 93.93 113.57 124.03 113.57 124.03 74.05 125.45 74.05 125.45 115"/><rect class="cls-1" x="139.83" y="57.61" width="13.84" height="1.43"/><path class="cls-1" d="M75.72,96.91a.73.73,0,0,1-.55-.25l-6.91-8.25a.71.71,0,0,1,.09-1,.69.69,0,0,1,1,.09l6.35,7.57L82,87a.71.71,0,0,1,1-.12.73.73,0,0,1,.12,1l-6.84,8.72a.69.69,0,0,1-.55.27Z"/><path class="cls-1" d="M117.57,83.28a.73.73,0,0,1-.46-.17.71.71,0,0,1-.09-1l6.91-8.26a.69.69,0,0,1,.54-.25.83.83,0,0,1,.54.24l6.84,7.77a.71.71,0,1,1-1.07.94l-6.29-7.14L118.12,83A.74.74,0,0,1,117.57,83.28Z"/><path class="cls-1" d="M146.76,63.7a.71.71,0,0,1-.62-.36.73.73,0,0,1,.27-1l7.11-4-7-5a.71.71,0,1,1,.83-1.16l7.91,5.65a.71.71,0,0,1-.07,1.2l-8.08,4.59A.73.73,0,0,1,146.76,63.7Z"/><path class="cls-4" d="M58.25,90.71a5.19,5.19,0,1,1-5.19-5.19A5.19,5.19,0,0,1,58.25,90.71Z"/><path class="cls-6" d="M99,35.69a6.29,6.29,0,1,1-6.28-6.29A6.29,6.29,0,0,1,99,35.69Z"/><polygon class="cls-7" points="31.16 90 17.78 90 17.78 100.03 31.16 100.03 31.16 107.9 44.04 95.01 31.16 82.12 31.16 90"/><polygon class="cls-7" points="126 54.35 115.67 54.35 115.67 62.1 126 62.1 126 68.18 135.95 58.22 126 48.27 126 54.35"/><path class="cls-1" d="M30.44,109.62v-8.88H17.07V89.28H30.44V80.4L45.05,95ZM18.5,99.31H31.87v6.86L43,95,31.87,83.85v6.86H18.5Z"/><rect class="cls-1" x="84.08" y="55.78" width="10.46" height="1.43"/><rect class="cls-1" x="88.59" y="51.26" width="1.43" height="10.46"/><rect class="cls-1" x="36.76" y="117.08" width="16.43" height="1.43"/><rect class="cls-1" x="44.26" y="109.58" width="1.43" height="16.43"/><path class="cls-1" d="M110,102.9a6.85,6.85,0,1,1,6.85-6.85A6.85,6.85,0,0,1,110,102.9Zm0-12.26a5.42,5.42,0,1,0,5.42,5.41A5.41,5.41,0,0,0,110,90.64Z"/><path class="cls-4" d="M33.25,36a4.4,4.4,0,1,1-4.4-4.4A4.4,4.4,0,0,1,33.25,36Z"/><path class="cls-6" d="M62.49,25.63a4.4,4.4,0,1,1-4.4-4.4A4.4,4.4,0,0,1,62.49,25.63Z"/><path class="cls-1" d="M44.63,68.08a6.52,6.52,0,1,1,6.52-6.52A6.53,6.53,0,0,1,44.63,68.08Zm0-11.61a5.09,5.09,0,1,0,5.09,5.09A5.09,5.09,0,0,0,44.63,56.47Z"/></g></svg>