<svg xmlns="http://www.w3.org/2000/svg" viewBox="0 0 689.54 714.97"><defs><style>.cls-1,.cls-3{fill:none;}.cls-1{stroke:#fed15e;stroke-miterlimit:10;}.cls-2{fill:#fed15e;}.cls-4,.cls-6{fill:#cee7f3;}.cls-4{fill-rule:evenodd;}.cls-5{opacity:0.31;}</style></defs><title>Artboard 48</title><g id="Header"><line class="cls-1" x1="132.55" y1="203.78" x2="132.55" y2="176.8"/><line class="cls-1" x1="132.55" y1="273.19" x2="132.55" y2="246.21"/><line class="cls-1" x1="111.34" y1="224.99" x2="84.36" y2="224.99"/><line class="cls-1" x1="180.75" y1="224.99" x2="153.77" y2="224.99"/><circle class="cls-2" cx="386.85" cy="89.49" r="9.55"/><circle class="cls-2" cx="159.4" cy="318.52" r="7.96"/><rect class="cls-1" x="69.03" y="307.01" width="30.29" height="30.29" transform="translate(-203.15 153.87) rotate(-45)"/><rect class="cls-3" x="455.8" y="-0.22" width="73.92" height="711.4"/><path class="cls-4" d="M491.56,674.15c0-.77.38-.95.48-1.54,1,0,2.07.81,1.45-.93.35.16.6.46.95.62a1.56,1.56,0,0,1-1.68,1.54c.06,1.77,1.7,1.52,1.44,3.7C493.21,676.56,492.8,674.82,491.56,674.15Z"/><path class="cls-4" d="M502.36,705c.78,1.26,1.84,2.16,2.4,3.69,1.49-.16,1.69,1.33,2.4,2.16-1.4,1.08-2.51-.44-3.36-1.54a10.39,10.39,0,0,0-1-.92c-.1-.23.09-.69,0-.93S501.62,705.82,502.36,705Z"/><path class="cls-4" d="M505,653.2c.34-.76.83-.54,1.44-.31.59-.72-.35-.57-.24-1.54a2,2,0,0,1,1.68,2.16C506.93,653.39,505.58,653.79,505,653.2Z"/><path class="cls-4" d="M513.88,344.21c-1.11-.1-2.28-.54-3.36-.62s-1.91.1-2.88,0-1.77-.49-2.64-.62c-.65-.09-1.29.06-1.92,0-3.74-.33-7.52-1.55-11.28-.92-1.33-1.24-3.44-.91-5.28-1.23-.45-.08-.93-.55-1.44-.62a7.25,7.25,0,0,1-2.64-.62c-.77-.38-.18,1-1,.62-1-1.37-3.63-1.77-5.28-2.16-.52-.12-1.21-1.37-1.44,0,.46.14,1.45-.42,1.2.62a2.42,2.42,0,0,1-2.88-2.16c1.9-.72,5.84-.31,7.92,0,2.36.36,4.86-.11,7.2.31.62.11,1.07.53,1.68.62.95.13,1.88-.12,2.88,0,.63.07,1.31.51,1.92.61s1.4-.1,2.16,0,1.6.53,2.4.62,1.91-.07,2.88,0c2,.15,4.2.69,6.24.92,1.59.18,3.17,0,4.56.31.69.16,1.07.58,1.68.62a13.63,13.63,0,0,0,1.68-.31,12.73,12.73,0,0,1,3.12.31c.33,0,.64-.31.72-.31.3,0,.49.29,1,.31a50.86,50.86,0,0,1,8.16.92c.6-1,.14-1.6.48-3.08-5.55-2.52-14.88-2.65-20.88-1.85-.49-1.41-2.67-.68-3.6-1.54v-2.15c-3.06,0-4.43-.64-7.2-.62-.35-.87-1.82-.32-2.16-1.23-1-.14-2.6.47-2.64-.93,1.64-.38,3.1.44,4.8.62.75.08,1.58-.14,2.4,0,.59.1,1.27.55,1.92.62,1.66.17,3.33-.11,5,0,3.18.19,7.67.92,10.56.92.42,0,.58-.41,1-.31,0,0,.18.58.24.62s.54,0,.72,0c1.87.23,3.59,0,5.28.31,1.27.25,2.52,1.44,3.84.61.59-.95-.29-1.88.49-2.46a5.33,5.33,0,0,0-3.61-2.16c-4.6-.74-10.27.33-15.84,0-2.19-.13-4.32-.68-6.47-.92-2.76-.32-5.48-.24-7.93-.62-.53-.08-1.14-.54-1.68-.61-1.46-.21-2.3,0-3.12-.62-.73-.22-.87.31-1.44.31-3.36-1.25-8.71-1.73-13.2-2.47-1.29-1.29-4.36-1-5.28-2.15-.38-.48-1.19-.17-1.2-.93,2.28-1.88,5.75-.56,9.6-.31,2.72.18,5.06-.43,6.48.62,3.49-.71,6.75.93,10.56,1.23a89.59,89.59,0,0,0,13.21-.3,8.56,8.56,0,0,0,.47-1.86c-.72-2.2-2.78-1.7-5-1.84a32.68,32.68,0,0,0-6-.31c-.89-.33-.68.76-1.44.62-.24-.93-1.44-.61-2.16-.93-.75-.15-.94.44-1.44.62-.43-.8-1.53-.82-2.16-.93a15.85,15.85,0,0,0-2.88-.31c-.42,0-1,.35-1.43.31-2.18-.19-4.3-1.17-6.49-1.23-.64,0-.52,1-1.2.92-.46-.12-.19-1.19-1-.92-1.54.09-2.89-.65-4.31-.92-.63-.12-1.32.1-1.93,0s-1.4-.44-2.16-.62-.61.1-1,0-.62-.54-1-.62c-.68-.15-1.66-.12-2.41-.3s-1.86,0-1.92-1.24c4.3-.5,8.64.65,12,.62.48,0,1-.34,1.44-.31.75.06,1.42.54,2.16.62.35,0,.86-.31,1.2-.31,1.41,0,3,.65,4.56.92a52.65,52.65,0,0,0,6.72.93c1.05,0,2.86.52,4.08.61.72.06,1.27-.1,1.92,0,.48.08,1,.52,1.44.62,1.6.37,3.33-.15,4.8.92a36.09,36.09,0,0,1,5.52,0c1,.14,1.79.8,2.64.62a2.66,2.66,0,0,0,2.16-2.46c-1.13-1.68-3.13-1.71-5-1.85-.9-.07-2,.1-2.88,0-2.67-.3-5.93-.76-8.64-.93-.38,0-.76.32-1.2.31-.79,0-1.74-.49-2.64-.62-1.4-.19-3,0-4.32-.3-.54-.12-1.13-.53-1.68-.62-1.7-.27-3.41-.26-5-.61-.77-.17-1.39-.47-2.16-.62s-1.81-.1-2.64-.31c-.36-.09-.65-.49-1-.61-.47-.19-1-.17-1.44-.31-1.94-.59-3.45-.88-5-1.54-.62-.27-1.88-.31-1.92-1.54a8.48,8.48,0,0,1,4.32-.31,42,42,0,0,1,4.56.92c.38.09.83-.12,1.2,0s.56.53,1,.62c1.86.4,3.81.23,5.76.61.83.17,1.6.74,2.4.93s1.89.12,2.88.31,1.75.45,2.64.61,2.08.15,3.12.31c3.16.5,6.14,1.61,9.12,1.85.68.06,1.49-.12,2.16,0,1,.17,1.91.77,2.88.92,1.66.27,3.32,0,4.8.31s2.94,1.1,4.56.93c-.25-1.15.6-.88.48-1.85a2.76,2.76,0,0,0-1.92-1.85,16.4,16.4,0,0,0-3.59-.62c-.35,0-.44.4-1,.31s-1.11-.55-1.68-.61c-.79-.1-1.55.11-2.4,0-.58-.08-1.32-.55-1.92-.62s-1.28.1-1.92,0-1.12-.5-1.68-.62c-2.91-.6-6.1-.43-8.64-1.54-1.67.37-3-.45-3.84-.61-.72-.14-1.5.11-2.16,0-1.12-.19-2-1-3.12-1.24-1.38-.31-2.9-.36-4.32-.61a41.83,41.83,0,0,0-6-.93c-1.69-1.41-5.34-.32-6.48-2.46,2.14.23,4.21,0,6,.31.57.1,1.11.56,1.68.61.36,0,.8-.29,1.2-.3a14.23,14.23,0,0,1,2.64.3c1.38.3,2.15.72,3.12.93a33.76,33.76,0,0,0,4.8.61c1.72,1.49,4.15,1.13,6.48,1.54s5.11,1.67,7.44,1.24a2.29,2.29,0,0,0,1.44.92c.74.23.47-.85,1.2-.62-.07.82.34,1,1,.93,2.34-.33,3.43.94,5.76.61.38.45,1.12.42,1.44.93,1.64-.55,2.64.7,4.8.31.2-1.06,0-1.44.24-2.78a14,14,0,0,0-5.52-2.46c-.89-.33-.38,1.16-1.2.92-.56-.09-.14-1.46-1-1.23a13.31,13.31,0,0,1-4.56-.61A21.8,21.8,0,0,0,505,302c-.89-.11-1.75.13-2.64,0-.56-.08-1.16-.51-1.68-.62-1.36-.29-2.77-.44-4.08-.61-1.69-.23-3.5.11-5-.93a1.08,1.08,0,0,1-1.2.62c-1.65-1.57-4.53-1.58-7.2-1.85-1.39-1.3-3.36-.76-5-1.23-.81-.23-1.58-1-2.4-1.23-.47-.15-.92-.18-1.44-.31a41.23,41.23,0,0,1-5.52-1.54c-.41-.19-1.18,0-1-.93,5.55-1,10.11.52,15.84.62.56.41,1.35.52,1.92.92,1.94-.46,3.36,1.15,4.8.31,1.45,1.32,3.4.87,5,1.24.46.09,1,.49,1.44.61,1.91.52,3.75.5,5.52.92,1.41.34,2.79,1.4,4.56.93.38,0,.19.78.72.61,1.95,0,2.89,1.22,5,.93a2.2,2.2,0,0,0,2.64.31c1-1-.48-2,.48-3.08a2.91,2.91,0,0,0,2.88-.31,3.91,3.91,0,0,1-.24-2.47c-1.28-1.24-2.59-1-4.56-1.23a51.74,51.74,0,0,1-5.52-1.23c-1.22-.26-3.34.29-3.6-1.23.81-1,1.37.29,2.16.3,2.39-.76,5,.69,7.68.62a2,2,0,0,0,2.89,0c-.1-1.44-.15-1-.25-2.46-1.53-1.6-4-1.74-6.24-2.16-2.36-.46-4.7-1.14-6.72-.62-.53-.81-1-.49-1.92-.31-2.76-1-6.53-.75-9.84-1.23-.51-.07-1-.53-1.44-.61-1.72-.33-3.56-.24-5.28-.62-.3-.06-.67-.54-1-.61-.52-.15-.93.12-1.44,0-2-.51-4.32-.95-6-1.55a19,19,0,0,0-2.64-.61c-.44-.1-.84-.5-1.2-.62-.73-.25-1.79,0-2.16-1.23,1.65-.45,3.24.47,4.8.62.47,0,1-.33,1.44-.31,3.76.17,7.49,1.39,11,.92,3.32,1.07,6.29.94,10.08.62,1-1.13-1.45-1.67-.48-2.78a9.82,9.82,0,0,0,3.6,0c3.74,0,6.73,2.66,11,2.16,1,.83,2.74,1.79,3.84,1.54.68-1.16-.39-2.22-.48-3.39-2.23-.52-4-1.58-6.71-1.54-2.07-1.18-4.13-1.18-6.25-1.84-1-.31-2-.87-2.88-1.24s-1.5-.47-1.92-.61a7,7,0,0,0-2.88-.31,12.24,12.24,0,0,0-6-1.23c-3.28-1.95-8.33-1.63-11.28-4a28.6,28.6,0,0,1,9.36.31c1.4.25,2.61.73,3.6.92.61.12,1.27-.1,1.92,0a16.53,16.53,0,0,1,1.68.62,30.18,30.18,0,0,0,4.8.62c.46.06.95.49,1.44.61,3,.73,6.12.3,9.12.93.75.3,1.31,1.06,2.16,1.23.59.11,1.15-.09,1.92,0,.47-1.12-.64-1.42,0-2.77-.3-.84-1.16-1-1.44-1.85-.61-.25-.13-1.89-1-1.85a4.45,4.45,0,0,0-3.12-.93,3.39,3.39,0,0,0-3.35-.61,5,5,0,0,0-3.13-.62c-.87-1.27-2.25-.94-3.6-1.23-.49-.11-.92-.46-1.44-.61-.3-.1-.65.08-1,0-.08,0-.59-.59-.72-.62a15.39,15.39,0,0,0-4.8-.62c-.75-.5-1.62-1.33-2.64-.61-.37-.24-.35-1-1-.93-1.86.24-2.58-1-4.56-.61-.58-1.05-2.65-.68-3.36-1.24-.53-.42-1.89-.05-1.68-1.23,1-.82,2.17-.24,3.36-.31,1.95-.1,4.28-.31,6.72-.31.8,0,1.64,0,2.4,0a18.93,18.93,0,0,1,4.32.31c1.8.39,3.35,1.06,5.05.31.36-3.9-2.19-3.15-4.57-3.39-1.31-.13-2.13-.65-3.6-.31a16.14,16.14,0,0,0-7.2-1.54c-.36-.36-1-.38-1.2-.92-1-.14-2.23,0-2.64-.92-1.12,0-2.45.26-2.4-1.24.78-.77,1.78.23,2.65.31a69.79,69.79,0,0,1,12.23.62c.84,1,2.87,1.28,3.6,0-.06-1.36-1-1.63-1.2-2.78-1.78.18-3.24-1.73-4.56-.3-1.48-1.78-4.13-1.48-6.24-2.16-.38-.12-.6-.54-1-.62s-.94.07-1.44,0a19.05,19.05,0,0,0-4.32-1.84c-1.5-.53-3.05-1-4.56-1.55a28.35,28.35,0,0,1-6.24-3.08c-.43-.3-1.73-.4-1.2-1.54,3.61.65,7.94.33,11.52.31,1.37,1,3.19.91,4.8,1.23a25,25,0,0,0,5.28.93,11.88,11.88,0,0,0,6,1.54,6.12,6.12,0,0,0,2.4.92,55.8,55.8,0,0,0,8.16,2.16,3.93,3.93,0,0,0,2.88.92c.59-1.53-.57-2.22-1-4-1.85-1.32-5.14-.79-7-2.16-.68,0-1,.57-1.68.62a25.21,25.21,0,0,0-4.56-1.23c-2.23-.5-3.93-1.24-6.24-1.24a11.43,11.43,0,0,0-5.28-1.23,5.79,5.79,0,0,0-4.08-1.54,11.68,11.68,0,0,0-2.88-1.54c-1-.7-2.66-.61-2.88-1.85,1.71-1.2,5.21-.1,7.2-.92a1,1,0,0,0,1,.62c1.86-.55,5.16.78,7,.3a6,6,0,0,0,3.36.93c.57.09.45,1.07,1.2.92a2.54,2.54,0,0,1,2.16.92c2-.13,4.3,1.75,5.76.31.23-2.14-1.09-2.29-1.44-3.69a1.9,1.9,0,0,1-2.16-.93c-1.85.78-3.63-.77-5.76-.61-.48-.52-.89-1.12-1.68-1.24-2.27.42-4.22-1.17-6-1.54-1-.2-2.47,1.1-2.88-.92,2.93-.29,5.91.17,9.12.31.91.88,2.48.93,4.08.92,1.39.71,3.17,2.13,4.8,1.54.41-2.88-1.38-2.94-2.16-4.31a33.94,33.94,0,0,1-4.08-.93c-.88-.3-1.74-.93-2.64-1.23a9.46,9.46,0,0,0-3.12-.62c-.25-1.1-1.83-.51-2.16-1.53h-1.92a4.09,4.09,0,0,0-1.92-1.54c-1-.72-2.9-.18-2.88-2.16,3.77,0,7.54-.37,11,0,2.48.26,4.66,1.48,7,1.54.63.43,1,1.13,2.16.92,0-.37.08-.72.48-.61.17-1.56-.43-2.12-.72-3.08-.48-.09-.78-.76-1.2-.93s-.54.34-.72.31-.39-.58-.47-.62c-.88-.36-2-.34-2.89-1.23a5.13,5.13,0,0,1-3.11-.92c-.59-.13-.53.56-1.21.31-.4-.62-1.37-.5-1.68-1.24-1.72-.32-3.56-.31-5-.92-.29-.12-.62-.73-1-.93-.53-.3-1.49.2-1.2-.92.89,0,1.4-.53,2.4-.61a20.36,20.36,0,0,1,2.64.3c.32,0,.33-.36.72-.3s.85.52,1.2.61c1.5.37,3.1,0,4.56.31.4.07.77.51,1.2.61s1-.08,1.44,0c2.64.51,5.28,2.54,7.93,1.55,0-2.56-1.19-3.63-2.17-4.93-1.66-.1-3.38-1.2-5.28-1.54-1.66-.31-3.65.29-4.8-1.24h-1.92a4.4,4.4,0,0,0-3.36-1.23c-1.28-.77-2.82-1.8-3.84-2.46-.39-.26-1.29,0-1.2-.93,2.18-.72,5.77-.62,7.68-.61a29.52,29.52,0,0,0,3.12,0c2.5-.29,5.06,1.05,7.44.31.7-1.67-.51-2.58-.72-4-2-.58-3.42-2-6-1.85-1.44-1.6-4.41-1.83-6-2.77a11.16,11.16,0,0,1-2.64-1.85,20.2,20.2,0,0,1,8.4-.31,6,6,0,0,1,1.2.62c.36.06.51-.3.72-.31s.48.29,1,.31a17.3,17.3,0,0,1,2.16,0c1.92.31,3.95,1.89,6,.92.07-1.11-.44-1.48-.48-2.46-1.08-1.32-4.06-1.71-5.76-1.23-.21-.45-.36-1-1-.93h-1.92c-.39-.72-1.4-.67-2.4-.62-1.12-1.22-3.53-.81-4.32-2.46-1.14-.18-2.46-.13-2.64-1.54,2.77-.63,5.79-.71,8.88-1.54,1.24.9,3.09.5,4.8.62,2,.13,4.53,1.22,5.05-.93-.13-2-2.14-1.58-2.17-3.69-1.94-.1-3.45-1.61-5.28-.93a16.43,16.43,0,0,0-5.28-1.23c-.54-.74-1.67-.72-2.16-1.54-1.58.53-3.19-1.11-4.8-1.54-.24-1-2-.15-1.92-1.54.74-1.28,2.38-.94,3.84-1.24,2.63-.52,7.06-1.76,9.36-.3a20.19,20.19,0,0,1,5,0c1.29.13,2.55,1.06,3.37,0A3.73,3.73,0,0,0,497.8,160c-1.11-.56-2.72.1-4.08.31-2.07-.6-5.24-1.18-7.44-.62-.75-.43-1.52-1.19-2.4-.62a5.54,5.54,0,0,0-3.84-1.53,3.56,3.56,0,0,0-2.64-1.24c-.91-2-3.65-1.68-4.32-4,1.24-1.31,2.87-.22,4.32-.31.57,0,1.07-.51,1.68-.62a28.08,28.08,0,0,1,7.44,0c.56.07,1.18.54,1.68.62.82.13,1.56-.08,2.4,0,2.13.18,4.28.84,6.24.92.76,0,1.5,0,1.68-.31s.29.32.24.31a3.43,3.43,0,0,0,1,0,4.49,4.49,0,0,0,2.64-.92c.11-2-1.13-2.25-1.44-3.7-1.19-.11-1.9-.84-2.88-1.23-3.12.63-5.57-1.47-9.36-.92a4.6,4.6,0,0,0-3.12-.93,10.67,10.67,0,0,0-4.8-1.85c-1.27-1.44-3.7-1.4-4.8-3.08a5.53,5.53,0,0,1-2.4-1.54c-.89-.5-2.28-.35-1.92-2.46a119.67,119.67,0,0,1,12.24-.31c.76,0,.81.82,1.68.62,2.64-.48,4.23.82,6.48,1.23a13.42,13.42,0,0,0,2.4.31c.67,0,1.91.28,1.92-1.24.14-1.2-1-.78-1.2-1.54.65-.46-.66-1-.72-1.54-1.67-.52-3.75-.52-5.28-1.23-1-.21-1.37.3-2.16.31a15.51,15.51,0,0,0-3.36-1.54c-.43-.13-.95.1-1.44,0a18.47,18.47,0,0,1-2.88-1.23c-1-.4-2.39-.18-2.64-1.54.85,0,2.33-.88,2.88-.93s.81.39,1.2.31c.07,0,.61-.58.72-.62.38-.11.82.08,1.2,0,1.54-.3,2.8-.81,3.84-.92,2.72-.31,5.53.48,8.4-.31,1.21,0,1.65.55,2.4-.31.63-2.17-.93-1.94-1.2-3.69-1.26-.94-2.32-.64-3.6-.62-3.21,0-5.15-2.34-8.16-1.85-1.59-1.45-4.49-1.22-5.76-3.08,1-.7,2-.08,3.12-.31s2.38-1.14,3.6-1.23c.83-.06,1.56.29,2.4.31.66,0,1.25-.28,1.92-.31.92,0,2.12.75,2.88-.31.17-1.65-.87-1.76-1-3.08-3.25-1.37-7.76-1.13-10.08-3.69-.62-.64-2-.28-1.92-1.85.54-1.57,2.07-1.86,3.84-1.85,1.8-2,5.67-1.15,7.44-3.08a6.75,6.75,0,0,0,.24-2.47c-.21-1.26-1.63-1.81-2.4-2.46A5.41,5.41,0,0,0,486.52,95a32.53,32.53,0,0,1-3.36-1.55c-.34-.17-.66-.45-1-.61-1.07-.58-2.69-1.22-2.88-2.47a10.11,10.11,0,0,1,1.92-3.08c.2-.22.49-.1.72-.3s.29-.73.48-.93A36.09,36.09,0,0,1,486.52,83c-.15-.91.28-1.36.24-1.85-.13-1.56-1.3-1.48-1.44-3.08.32-1.34,1.45-1.88,1.92-2.46.21-.25.52-.37.72-.62s.52-.36.72-.61c.41-.51,1.24-1,1.44-1.24s.36-.15.48-.31.06-1,.24-1.23.81,0,.72-.61c.53-.45.48-1.65,1.2-1.85.08-2.1.58-3.61.48-5.55-.08-1.69-1-3.34-.72-5.23,1.32-3.34,3.34-5.79,4.08-9.86,1.56-2.21,2.76-4.88,2.4-9.55-.31-.92-1.31-1.78-1.44-3.08-.23-2.51,1.22-3.82,1.44-5.55a18.65,18.65,0,0,0-.24-2.46c0-1.88.35-3.7.24-5.55-.18-3.11-1.09-5.76-1.44-8.63a3.93,3.93,0,0,1-.72-2.77,3.66,3.66,0,0,1-1-2.46c-.87-2-1.36-4.41-2.39-6.16-.8-.53-.6-2.33-1.69-2.47-.47.71.06.34.24.92.53,0,.1,1.31.24,1.85,1,.89,1.07,2.63,1.44,4a13.47,13.47,0,0,1,1,4.62c.77.56.86,1.93,1.2,3.08a24.15,24.15,0,0,1,1,3.39,50,50,0,0,1,.24,8,43.76,43.76,0,0,1-.48,5.85c-.09.6-.93.25-.72,1.24V34.9c-.13,1.07-1.43.63-1.68,1.54.2.77,1.1.65,1,1.85.52.46,1.5.34,1.68,1.23-.46.75-.15,2.48-.24,3.7a8.49,8.49,0,0,0-1,3.39c-1.26,1.63-1.79,4-2.64,5.85-.33.72-1,1.22-1,2.16-1.13,1.12-2.4,2.05-2.64,4.31.09,1,.91,1.09,1.2,1.85,0,1.51.69,2.47.72,3.7.06,2-1,3.44-1.44,5.23-1.16,1.63-2.72,2.7-3.84,4-.41.48-.61,1.28-1.2,1.54a4.17,4.17,0,0,0-2.16.31c0,1.08-.68,1.37-.72,2.46.52,1.39,1.84,1.75,1.92,3.7a6.89,6.89,0,0,1-2.64,2.15c-.55,1.24-1.54,1.93-2.16,3.09a3.76,3.76,0,0,0-2.16,1.84,14.42,14.42,0,0,0,.24,3.08c1.91,2.27,4.81,3.28,7.2,4.93h1.2c.73,1.44,3,.89,3.12,3.08-.66.46-1.22-.17-2.16.31-.92,1.18-3,.9-4.08,1.85a7.15,7.15,0,0,0-3.36.93c-1.56-.37-2.12.56-2.64,1.54.25,4.5,3.82,4.75,5.76,7.08a2.88,2.88,0,0,1,2.64,1.23c-1.91.38-3.42,1.31-5,.62a3.23,3.23,0,0,1-1.92.92c-1.18-.5-2.55-1-3.35.31-.07,2.2,1.51,3.18,2.87,4a28,28,0,0,0,3.84,1.85c.09,0,.36.56.48.61,1.31.48,3.49.52,4.56.93,1.82.69,3.76.83,5.52,1.54,1.2,0,2.19-.8,2.4.92-2.41.42-4.79-.38-7.2-.31-1.84.05-4.14,1.05-6,.93-.55,0-1-.38-1.44-.31-1.24.17-2.86,1.28-3.6.92-.23-.11-.43.31-.48.31a3.77,3.77,0,0,0-1,0,8.45,8.45,0,0,0-2.17.62c0,1.78.76,2.52,1.2,3.69,1.56.58,3.2,1,4.32,2.16a5.13,5.13,0,0,1,3.36,1.23c-3.31.51-6.93-1.68-9.84.31-1.41-.8-3.56-.67-3.84,1.23-.22,1.52,1.08,2.24,1.44,2.78,1.22,1.8,3.75,3.14,5,4,3.35,2.23,6.34,3.33,8.4,4.62h1.68a15.75,15.75,0,0,0,3.84,1.85c.81.18,1.78-.12,2.64,0,.58.08,1.1.49,1.68.62,2.41.53,5.37-.3,7,1.54-1.5.86-3.07-.19-4.32-.62-4.42.88-9.26-1.81-13.92-.61-1.31-1.58-3.94.37-5.52-.62a5.42,5.42,0,0,1-4.32.62c-.46.73-1.34.93-1.44,2.15a5.51,5.51,0,0,0,1.92,3.08,9.69,9.69,0,0,0,1.2.92c.15.12.32.5.48.62,1.53,1.12,3.58,1.46,4.8,3.08,1.08.26,2.24.41,2.88,1.23-1.27.73-3,.83-4.08,1.85a2.72,2.72,0,0,0-1.92-.61c-.24.71-1.6,0-1.44,1.23-.47.43.51,1.59.48,2.46,1.26,1,2.78,1.57,3.84,2.78,2.53.46,3.9,2.39,6.72,2.46a7.33,7.33,0,0,0,5.52,1.54c.59,1.1,2.88,0,3.12,1.54-1.62.24-3.64-.4-5.75-.31-.43,0-1,.27-1.45.31-3.38.37-6.71-.89-9.12.62a8.14,8.14,0,0,0,.48,3.39,18.87,18.87,0,0,0,4.08,3.08c.42.25,1.33.28,1.2,1.23-1.25.85-4-.24-5.28.62-.8-1-2.86-.84-3.12.61.29,2.21,2,2.57,2.88,4,2.54.33,3.67,2.47,6.48,2.46.87,1,2.57,1.26,3.36,1.85.22.16.32.5.49.62s1.29,0,1.19.92c-3.05-.12-9.23-1.63-11.76.31-1.19-.69-2.72,0-3.6.61-.23,1.05.34,1.65.24,3.08,2.12,1.7,5,2.42,7.2,4h1.68c1.09,1.28,3.41,1,4.56,2.16.55.22,1.87-.56,1.68.61a31.79,31.79,0,0,1-7.92-1.54c-.15,1.1-1.42,0-2.16,0-1.41,1-2.75.37-4.32.93-.61-.48-1.71-1.51-2.64-.62-.49,1.13.43,1.24.24,2.77a28.67,28.67,0,0,0,8.16,4.62c.3.11.67-.11,1,0,.09,0,.36.58.48.62.3.1,1.46-.64,1.2.62-3.18.52-5.37-1.31-7.44.3-1.3-.82-3-1.16-4.08.31-.2,1.29.47,1.46.48,2.47a29.5,29.5,0,0,0,8.4,5.54c.37.17,1.37-.29,1.2.93s-.93.41-1.44.3-1.33-.55-1.92-.61-1.22.33-1.92.31c-1.81-.07-3.19-.6-4.08.61-.15,2,1.2,2.16,1.68,3.39,1.16,0,2.19.07,2.4,1.23-2.37.06-4.54.8-7.68.62-1-.09-1.39-1.08-2.4-.31-.35,1.37.17,1.59.24,3.08.32.72,1.16.56,1.68.93.19.13.29.77.48.92.36.27.84.11,1.2.31s1.17.68,1.68.92,1.72,0,1.68,1.24c-.59.53-1.6-.45-2.64-.31-2.84.45-6-.88-7.92.31a8,8,0,0,1,.24,2.77c.78,1.16,2.29,1.37,2.88,2.77.63-.33.9.3,1.44.62a28.18,28.18,0,0,0,2.88,1.23c.36.17.83.78,1.2.92s1.21.17,1.68.31a12.54,12.54,0,0,1,4.56,1.85c.92-.31,1.75.31,2.64.62s2.3-.13,2.16,1.54c-1.93-.41-3.56.45-5,.3-1.11-.11-1.93-1.11-3.12-.92-.71.91-.49,1.17-.72,2.46,1.93,3.28,6.37,3.33,9.36,5.24-2.41.92-4.94-.17-7.44,0-1.14.08-2.21.83-3.36.62-.69.23-.57,1.52-1.2,1.85a2.23,2.23,0,0,1-1.91.61c.34,1.37-.82.81-.73,1.85.59,2.22,2.86,2.3,3.84,4A8.78,8.78,0,0,1,475,263.8c.26.17.93.34.72.92a7.59,7.59,0,0,0-5,.93c-.76.74,1.05,1.94-.24,2.46-1.35-.73-3.26-.74-4.32-1.85-.73-.22-.7.53-1.44.31-1.93-.38-6.28-2.92-7,.62.83,2.19,3.68,2.27,5,3.08a13.07,13.07,0,0,0,8.16,1.85c.05,1,1.57,0,1.44,1.23a20.31,20.31,0,0,0-7.92,1.23c-.65.68-.06,1-.48,1.85-.74.27-1.67.32-1.68,1.54a3.91,3.91,0,0,0,3.36,2.77c1,1.19,3.23.79,4.08,2.16-.76,1.25-1-.09-2.16,0-2.22-.28-6.49-2.21-7.92.31a2.44,2.44,0,0,0,2.64,2.46c.65,1.22,2.34,1.11,3.36,1.85,1,.92,2.45.84,3.84,1.23.31.09.5.54.72.62,1.23.44,2.51-.36,2.88.92-1.36,1.47-3.36-.54-5.52,0a7.33,7.33,0,0,0-1.44-.61,10.67,10.67,0,0,0-2.64.3c-.31,0-.32-.37-.72-.3a8.57,8.57,0,0,0-3.12,1.23c0,3.57,3.26,3.72,5,4.62.58.29,1.68.19,1.44,1.23-1.66-.08-3.63-.86-5.28-.92-.31,0-.64.3-.72.31-.34,0-.43-.44-1-.31s-1.69.53-1.68,1.54c-.32,1.42.43,1.18.72,1.54a8.51,8.51,0,0,0,1,1.23c.25.16.69-.1,1,0s.49.54.72.62c.6.2,1.37-.26,1.68.61-.18,1.41-2,.76-2.16,2.16.23,2.69,2.58,2.65,3.84,4h1.44c.62,1.17,2.51.69,2.89,2.16-1,.58-2.24-.25-3.61-.31-1,0-2.12.28-3.36.31s-2.78-.52-3.6-.31a6.17,6.17,0,0,0-2.16,1.54,3.3,3.3,0,0,0,2.4,3.08c.75.3,1.06.07,1.68.31.09,0,.36.58.48.62,2.14.7,4.88.36,6.24,2.15a9.73,9.73,0,0,0-3.6.93c-.28,3,2.13,2.6,2.88,4.31.56.51,2.05-.16,1.92,1.23-.49-.65-.95.09-1.44.31-2.49-.86-6.67-1.5-8.64.31a2.3,2.3,0,0,0,.24,1.54c.1.36.05,1,.24,1.23s.4-.1.48,0a2.37,2.37,0,0,0,1.44.93c.32.09.28.5.48.61a22.33,22.33,0,0,0,2.4.93c.76.32,1.72.47,2.16,1.23-1.91.76-4.13-.54-6,0-.24.71-1.61,0-1.44,1.23-.42,1.69,2.11,2.22,2.64,3.7-.27,1.68.74,1.73,1,2.77.9.48,2.3.89,2.88,1.23s1.58.7,1.44,1.54c-1.83.54-5.72-.85-7,1.24-.11,2.71,2.21,2.29,3.12,3.69,3,.19,4.83,1.82,7.44,2.47-.94.62-1.85,1.64-2.88,1.85a4.43,4.43,0,0,1-1.68-.31,10.6,10.6,0,0,1-2.16-.62c-.88.71-2.32.71-3.36,1.23.7,3.34,2.47,3,4.8,3.7a41.6,41.6,0,0,0,4.8,1.54,3.29,3.29,0,0,1-2.64,2.16,9.51,9.51,0,0,1-2.16-.31,21,21,0,0,0-6.72.92v2.47c3.87,2.74,10,2.52,13.92,5.24,2.73.29,4.77,1.48,7,2.46.6.56,2,.14,1.92,1.54-1.63-.38-3.58.08-5.51-.31-.45-.09-.52-.42-1-.61-1.22-.54-2-.11-3.12,0-3.23.3-8.88-.36-10.8.61-.62.32-2,.37-1.92,1.54.54,3.31,3.44,3.6,5.52,4.93a7.82,7.82,0,0,0,1,4,4.58,4.58,0,0,0-1,4.31,7.27,7.27,0,0,1,2.4,1.54c3.7.52,7.45,2,10.8,2.77,1.24.27,2.67,0,3.6,1.24-2.29.16-5.2.82-7.68.3-.59-.12-1.05-.62-1.68-.61a5.36,5.36,0,0,0-3.12,1.23c-.42.25-1.55-.17-1.2.92.11,2.15,1.89,2.26,2.88,2.78.35.18,1.29.11,1.2.92-1,.05-2,.11-2.4-.62-3.24,1.17-8.18-2.16-10.56.62-.45.14-1.44-.42-1.2.62-.17,3.1,3.18,1.68,4.08,3.39a10.49,10.49,0,0,1,4.56,1.23,3.47,3.47,0,0,0,1,.31c2.3.41,4.87-.63,6,1.84-1,.77-1.9,1.67-3.6,1.54-.16,1.44.38,2,.48,3.09,1.3.59,3,.66,4.32,1.23a8.49,8.49,0,0,1-6.24-.31c-1.09,1.26-4.61-.58-4.08,2.77,2,2,5.56,1.9,8.16,3.08a22.8,22.8,0,0,0,.72,2.78c1.19,1.21,4.39-.16,5.28,1.23-.43,1.72-1.92.15-3.12.31-.76.09-1.25.75-1.92.92a7.5,7.5,0,0,0,.24,2.46c1,1.13,2.52.9,3.84,1.24s2.51.92,3.84,1.23c.4.09,1-.08,1.44,0,.6.1,1.12.5,1.68.62,1.79.35,3.72.52,5.28.92.51.13,1.41-.24,1.44.92-.77.78-2,.1-2.64-.3-.26.79-1.28.6-2.16.61a12.1,12.1,0,0,0-1.68-.61,36.49,36.49,0,0,0-8.16,0c-.46,0-1,.58-1.44.61-.77.07-1.1-.71-1.68-.31-.2.87-1.25.66-1.68,1.24-.05,1,.43,1.3.24,2.46,2,.85,5.27,1.56,6.72,2.16,2.75.78,5.11.59,7,1.54.76.15.85-.56,1.68-.31,2,1.47,5.71.37,8.16,1.85a65.7,65.7,0,0,1,7.92.31c.5,0,1,.55,1.44.61s1.14-.35,1.68-.31a2.67,2.67,0,0,1,1.44.62c-.4.94-1.8.62-2.87.31-1.19,1.32-3.35-.4-4.33.92-1.86-1.45-5.17-.61-7.44-.61-.56-.1-.44-1.07-1.2-.93-.45.13-.43.88-1.2.62a17,17,0,0,0-4.56-.93,35.06,35.06,0,0,0-3.84-.3,4.75,4.75,0,0,0-2.16.61c-1.09-1.13-3-.25-5-.31-.49,0-.91-.26-1.44-.3-3.62-.29-6.61-.26-8.64,1.54-.19,1.07.36,1.18.24,2.15,1.46,1.11,3.43,1.55,5.28,2.16.9.29,1.76.73,2.64.92,1.09.25,2.21.11,3.36.31,1.6.29,3.24,1.15,4.8,1.23a5.15,5.15,0,0,0,1.2-.3c1.44.87,3.7,1,5.52,1.23.82.1,2.05-.48,2.4.61a2.51,2.51,0,0,1-3.36-.3c-.21.45-.36,1-1,.92-1.16-1.05-3.15-1.18-5-.62-.65-1.08-1.93-.24-3.12-.3a17.29,17.29,0,0,0-2.88,0c-1.14.11-2.25-.37-3.36-.31a15.21,15.21,0,0,0-4.8,1.54c-.23,1.53.49,1.83.72,2.77a42.76,42.76,0,0,0,5.28,1.54c.77.17,1.44.13,2.16.31.31.08.49.53.73.62s.81-.1,1.19,0c1.37.33,3,.94,4.56,1.23,1.4.25,2.91.39,4.32.61s2.88.51,4.32.62c3.17.24,5.2.89,7.92.62,1.18.81,2.65.47,4.32.61,1.17.1,2.91,0,3.12,1.23-2.83.75-5.25.2-8.64.31-.7.08-.73-.69-1.44-.61-.9.86-1.91-.28-3.12,0-.95-.2-1,.81-1.92.61A4.08,4.08,0,0,0,488,457c-.43-.15-.54.39-1,.31a4.9,4.9,0,0,0-.24-.62c-1-.62-2.36.27-3.36.31-.89-.81-1.63-.42-2.64,0-.32-.62-1.06-.69-1.68-.93-3.29.27-5.57-.66-7.2.31-.2-.45-.19-1.19-1-.92-3.14.17-7-.58-9.12.92-.17,1.15.41,1.32.24,2.47a3.34,3.34,0,0,0,3.12.92c.85,1.14,2.19,1.15,3.37,1.54a24.14,24.14,0,0,0,3.59,1.23,13.83,13.83,0,0,1,1.44,0c.66.2,1.22.76,1.92.93.92.22,2,.09,2.88.31s1.6.76,2.4.92c2.23.45,4.68.21,7,.62.9.16,2.54.83,3.12.92.24,0,.3-.34.48-.31,1.26.19,2.57.75,3.84.93,1.76.24,3.18.12,4.56.31a17,17,0,0,1,3.6.92c.45.15,1.32-.37,1.44.62-.59,1.38-2.37.89-3.84.92-2.78.05-5.68-.29-7.43,0a3.06,3.06,0,0,0-2.17-.62c-.69,0-1.15.57-1.92.62a7.54,7.54,0,0,1-1.91-.31c-.34-.12-.89-.41-1-.92-.76-.05-.8.82-1.68.61-.41-.39-.63-1-1.44-.92a4.71,4.71,0,0,0-3.12.62c-.37-.14-.2-1-1-.62-2.71.53-5.9-.45-8.88.31-.5-.18-.68-.77-1.44-.62a8.64,8.64,0,0,1-3.36,1.23c-.47,3.63,2,3.45,3.6,4,.75.26,1.49.67,2.16.92,1,.37,2.08.31,2.64,1.23.86.17,1.79.11,2.64.31.31.07.61.52,1,.62s1.05-.1,1.44,0c1.9.48,3.51.95,5.28,1.23a24.86,24.86,0,0,1,2.88.31c.48.14.73.53,1.2.62,1.59.27,3.32,0,5.05.3,1.05.2,2.06.81,3.11.93.59.06,1.1-.11,1.68,0s1.29.54,1.92.61c2.11.24,3.5-.25,4.32,1.24-4.33.86-8.78-.3-12.72-.93a2.51,2.51,0,0,0-2.16.62c-.3-1.56-2.59-.58-3.36-1.54-.72.4-1.91.21-2.64.61a5.84,5.84,0,0,0-2.16-.92c-3.06.48-7.4-1.9-10.32.31.2.87.28,1.9.48,2.77.95.65,1.77.46,2.64.62a52.91,52.91,0,0,0,10.08,3.39c3.39.65,6.37,1.17,9.6,1.84,1.27.27,2.59.66,3.84.93,2.69.58,5.91.81,7.92,1.85a4.36,4.36,0,0,1,2.16.3c.46.18,1.38.52,1.44,1.24-.4,1.23-2.45.35-3.6.61a4.55,4.55,0,0,0-1.44.62c-1.43-1.24-3.18.28-4.56-.93a4.37,4.37,0,0,1-3.84-.3c-.59-.05-.74.48-1.2.61,0-1.23-1.46-.59-1.92-1.23a8.11,8.11,0,0,1-6.48-.31c-2.28,1-5.48-1.54-7.68.31-.56-.09-.44-1.07-1.2-.92-1.19.74-2.71.06-4.08.3-.33.07-.62.5-1,.62-.57.2-1.11-.2-1.44.31.19,3.15,2.39,3.71,4.8,4,1.28,1.18,2.7,1.16,4.08,1.54,1.09.31,2,.63,3.12.93a42.48,42.48,0,0,1,6.24,1.85c2.37.42,4.84,1,7.44,1.54l1.92.31c2.15.33,3.83,1.25,5.52,1.54,1.18.19,2.87-1,3.36,1.23-3.77.32-6.38-.85-10.08-.62a7.79,7.79,0,0,0-1.44-.61c-.35-.07-.51.31-.72.3-2-.06-4.58-1.2-6.24-.3-.52-1-1.74-.54-2.64-.31-.44-1.45-1.73,0-1.92,0a5.9,5.9,0,0,0-.48-.62c-.88-.7-3.59-.31-4.32-.31a2.26,2.26,0,0,0-.72-.3c-1.8-.26-5.27-.77-7-.31-.38.1-1.49.63-1.44,1.23-.21,2.38,1.95,2.83,3.12,3.39a35.83,35.83,0,0,0,6,2.15c.55.16,1.19.5,1.68.62.81.2,1.63.11,2.4.31s1.61.71,2.4.92c1.37.38,2.94.32,4.32.62,1.11.24,2.19.95,3.36,1.23.61.15,1.28.17,1.92.31a33.84,33.84,0,0,1,5,1.23c1.24.06,2.84-.35,2.89,1.23-2.6.68-5.62-.7-8.17.31-.6,0-.75-.47-1-.92-.56,0-.7.53-1.44.31-1.56-1.41-3.71-.56-6-.62a13.58,13.58,0,0,0-1.92-.92c-.95-.2-1,.81-1.92.61-1-1.28-2.47-.6-3.6-.61-1.57,0-3.27-1-4.32,0a4.93,4.93,0,0,0-3.84-.62c-.69.15-1.7.57-1.68,1.23-.28,2.49,2.08,2.85,3.36,3.39.41.17.74.1,1.2.31.73.32,1.43.63,2.16.92.43.17.86.52,1.2.62.49.14,1.16-.11,1.68,0s1.29.73,1.92.92c1.69.53,3.33.86,4.8,1.24s2.53.35,3.84.61c.55.11.93.51,1.44.62,1.55.32,3.3.26,4.8.61.49.12.94.53,1.44.62,1.34.24,2.73-.22,3.84.92,1.07-.37,2.39-.24,2.64,1.24-4.72.42-10.06-.76-14.64-.62a1.67,1.67,0,0,0-1.2-.62,15.14,15.14,0,0,0-4.8,0c-1.17-1.11-2.92-.42-4.8-.61-1.66-.17-3.09-.83-4.32-.62-.64.11-1.48.91-2.16.93.07.93,0,2.1.72,2.15.4.52,1.16.57,1.44,1.24,1.21-.22,1.68.52,2.88.3.75,1.2,2.52,1.09,3.6,1.85h1.92a8.88,8.88,0,0,0,4.81,1.23c.59.26.94.85,1.67.93,4,.87,8.3,1.26,11.76,2.77a6.61,6.61,0,0,1,3.84,0c.59.2,1.47.62,1.44,1.23-.33,1.79-1.36.8-2.4.62-3,1-7.16-.34-9.36.31a6.94,6.94,0,0,0-3.84-.93c-1-.06-1.87.1-2.88,0s-2.23-.52-3.36-.61c-1.38-.11-2.93.16-4.32,0-.56-.07-1-.49-1.68-.62s-1.51.13-2.16-.31c-.32.31-.72.51-1,.93-.45.13-1.44-.42-1.2.61v1.54c.87,1.16,2.29,1.14,3.6,1.54,1.89.59,3.46,1.57,5.52,1.54.38.45,1.12.42,1.44.93.57,0,.71-.53,1.44-.31a33,33,0,0,0,10.56,2.16c1.62,1.62,5.68.1,7.2,1.84-5.91.93-10.72-.42-15.6-.92-2.05-.21-4.07,0-6-.31-.68-.13-1.28-.52-1.92-.61-2.32-.35-4.94-.64-7.2.61-.08,2,.89,2.56,2.16,2.78a48.55,48.55,0,0,0,7.68,2.46c1.45.29,3.11.27,4.08.62a64.59,64.59,0,0,0,7,1.54,32.23,32.23,0,0,0,7.44,1.23,5.82,5.82,0,0,0,2.17.92c1.53,0,3.2-.22,3.59,1.23-1.08,1-2.51.6-3.84.62-4.73.09-9.34-.89-13-.62-1.78-1.13-3.62-.58-5.28-.61-.55,0-.91-.64-1.2-.62,0,0-.4.55-.72.62-1.36.32-2-.48-2.88-.62-.35-.05-.85.33-1.2.31-.94,0-2-.6-2.88-.61a15.79,15.79,0,0,0-1.67.3c-1.77.19-3.71-.5-5.29.93a2.81,2.81,0,0,0,.72,1.85,6.64,6.64,0,0,0,2.88,1.84c.37.15.84-.15,1.2,0s.26.51.72.62.81-.07,1.2,0c2,1.7,5.34,1.57,7.68,2.77,3.63.17,6.14,1.79,9.85,1.85,1.26,1.24,3.27.79,5,1.23.75.19,1.43.76,2.16.93,1.78.41,3.54.27,4.56.92.29.18,1.06.68,1,1.23-1.08,1-3.06.62-4.8.62-2,0-3.85-.2-5.28.31-2.55-1.11-6.76-.13-10.08-.93-.68.06-1,.57-1.68.62-.74-.27-1.18-.94-1.92-1.23-2.45.91-5.16-.27-7.68,0-.4,0-.74.51-1.2.61-1.09.25-1.78-.15-2.16.31s-1,.42-1.44.62c-.13,1.4.49,1.84.72,2.77,1.6.5,3.33,1.09,4.56,1.54.3.11.67-.12,1,0s.26.5.72.62c.95.25,1.89.08,2.88.31.43.09,1,.48,1.44.61a26.83,26.83,0,0,0,7,.93c.6.25.95.84,1.68.92,2.25-.11,4.29,0,5.52,1.23-1.09.45-2.18-.19-3.6-.31s-3.11.25-4.56,0-2.9-1.15-4.32-.3a11.72,11.72,0,0,0-3.6-.62c-2.94-.2-6.11-.54-7.92.92-.18,1.27.37,1.59.24,2.78-.88.71-2.8.1-2.88,1.85s1.3,2,2.16,2.46a21.77,21.77,0,0,0,3.36,1.23c1.12.36,2.19.88,3.36,1.23s2.64.27,3.84.62,2,1,3.12,1.23c.56.11,1.36,0,1.92,0a43.79,43.79,0,0,1,4.32.93c2.56.51,5.65.7,7.68,1.54.44.18,1.4-.26,1.2.92-.85.67-1.69,0-1.92,0-.53,0-.32.91-1,.62-.86-1-2.16-.51-3.35-.62-1-.09-2.11-.66-3.13-.61-.34,0-.43.33-1,.3-1.25-.06-2.55-.53-3.84-.61-.35,0-.5.29-.72.31-.45,0-.53-.29-1-.31-1.91-.08-3.3-.49-4.56-.62a9.45,9.45,0,0,0-5.28.93c-.34,3.11,1.95,2.84,3.84,3.08,1.51,1.14,3.54.78,4.8,1.23a23.61,23.61,0,0,0,3.12.92c1.59.32,3.51.26,4.8.62.45.12.78.54,1.2.62.67.12,1.21-.11,1.92,0,1,.14,2,.68,3.12.92a26.53,26.53,0,0,0,5.52.62c1.06.75,3.66,1,4.56.92,1.11.42,2.95-.08,3.12,1.54-2.17.57-4.49-.42-7-.62-.35,0-.5.3-.72.31s-.51-.3-.72-.31c-2.25-.09-3.73-.47-5.52-.61-.63-.05-1.26.08-1.92,0-2.26-.29-4.57-1-6.71-1.23-1.06-.1-2.13.19-3.13,0-.61-.12-1.09-.57-1.68-.62a2.15,2.15,0,0,0-1.2.31c-.18,0-.26-.31-.24-.31a8.92,8.92,0,0,0-2.16.31c-.95.37-1.39.21-1.68,1.54.44,2.09,2.2,1.49,3.84,1.85a15,15,0,0,1,1.68.61c.57.19,1.7,0,1.68.93-3.6.4-6.61-2-9.36,0-.2,1.39.57,1.54.72,2.46,5.14,1,10.34,2.52,15.36,2.77a2.18,2.18,0,0,0,1,.62c1.49.45,3.51.59,5.28.92s4,.11,4.8,1.55c-1,1.28-1.73-.11-2.87-.31-1.43.53-2.7-.38-4.33-.62a22.2,22.2,0,0,0-5.28,0,1.64,1.64,0,0,0-1.2-.62,22.77,22.77,0,0,0-8.64.31c-.19,1.27.37,1.58.24,2.77.92.67,2.65.3,2.4,2.47-.56.61-2,.11-2.4.92-.23,1.43.31,1.86.48,2.78a10.53,10.53,0,0,0,3.6.92c.84,1.29,2.34,1.73,2.88,3.39,2.14.24,3.21,1.83,5.52,1.85.44,1.6,2.78.74,3.12,2.46-.57,1.83-2.42.52-3.84.31s-2.73.21-3.6-.62c-.87-.2-.92.67-1.68.62s-.19-1.19-1-.92c-1.09.17-1.49-.55-2.64-.31-1.14-.87-5.44-2.44-6,0-.05,1.69,1.35,1.9,2.16,2.46.13.09.32.56.48.62s.69-.15,1,0c.11.05.32.5.48.62,1,.71,1.91.86,2.4,1.84s1.22.26,1.68.62c-.07.72-.47,1.27,0,1.85,1-.45,1.66.54,1.92.61,1.21.33,3.13-.15,2.64,1.54-1.41-.75-3,.07-4.56,0-1.81-.06-3.75-1.09-5,.31a2,2,0,0,0,1,2.16c.59.48.7,1.57,1.44,1.85,1.24-.29,2.4-.43,2.88.92-.73.3.28.82.24,1.23-.71.83-2.34.49-3.12,1.24.08.72.47,1.27,0,1.84a11.63,11.63,0,0,0,2.16,1.55c.85.51,2.26.28,1.92,1.54-1.37,1-3-.67-4.32-.62-.82,0-1.32.62-1.91.92.34,3.36,3.64,2.92,6,3.7.65,1.22,2.6.77,3.36,1.85,1.47.27,3.55-.24,3.36,2.16-.93,1-2.25-1-3.12,0,.21,1.34.06,1.37.24,2.46a13,13,0,0,1,4.56,1.85c1.56-.68,2.82,0,3.84.31,1.78.57,3.8.42,4.32,2.15a1.76,1.76,0,0,0-1.44.62c-.58-.17-.51-1.19-1.44-.92-1.09.17-1.49-.55-2.64-.31-.84.08.61,1.14-.24,1.23-.59,0-1.15,0-1.44.31a8.3,8.3,0,0,0,0,2.77c-.68-.06-1.31,0-1.2.92a3.08,3.08,0,0,0,1.68,2.78c.78.75,1.17,2,2.4,2.15-.27,1.38.74,1.11,1.2,1.54.27,1,1.12,1.58,1.68,2.47s1.4,1.49,1,2.77c-.34.88-1.3-.83-1.68,0-.15,1.13.52,1.18.48,2.16.42.37,1.63.37,1,1.23-.92.69-1.11-.36-2.16-.31-.62-.65-.2-1.2-.48-1.85-.52.06-.76-.25-.72-.92-.32-.76-.72.55-1-.31.15-1.66-1.87-1-1.2-2.46-.46-.58-.43.18-1.2,0-.36-.57,0-2.07-1.2-1.54-.13,1.5.93,1.47,1.44,2.15s.75,1.71,1.44,2.16a8.47,8.47,0,0,1,2.17,3.08c.06.63,1.06.07.95.92.76,2.62,2.19,4.38,2.4,7.71.92,1.19,1.29,3.07,2.16,4.31-.1.59-.51.77-.48,1.54.75,0,.47,1.06.72,1.54.62,1.18,1.71,1.78,2.16,3.08.8.62,1.81,1,1.92,2.46,1.93-.45,2.07,2.81,3.6,1.85.54-1.91-1.13-1-1.2-2.15-.55-.69.08-1.2,0-2.16-.06-.46-1-1.3-.48-1.54.26-1.35-.81-1-.72-2.16a2.8,2.8,0,0,0-.48-2.46c.53,0,.52-.78.48-1.54a6.14,6.14,0,0,1-1.2-2.77c-.35-.69-1.28-.61-1.44-1.55,1.19-.87.47-2.76,0-4-1-.29-.92.86-1.68.92-.28-.09-.9-1.24-1.2-.3-.95.3-.72-.92-1.68-.62.43-1.46-.47-1.58,0-3.39.78.5,1.3.15,2.17,0,.94.76.45,3.16,1.43,2.47,0-.42,1.22-.62.48-.93-.42-.63.12-.83,0-1.54s-1.22-1.24-1-2.46c-.45-.45-1.24-.46-1.44-1.24.76-.42-.33-1.52.24-1.84.25.42.72.14,1.2.3s.78.62,1.2.62c1.19,0,1.53-.07,2.16-1.23.14-.63-.35-.66-.48-.93a10.14,10.14,0,0,0-.24-1.23,10.32,10.32,0,0,0-1.44-1.85c-.38-.36-.94-.27-1.44-.61-.14-.1-.28-.48-.48-.62-1.19-.89-2.36-1.4-3.36-2.16-.53-.64-.58-1.91-1.44-2.15-.25-.6-1,.78-1.92.31-.34-.79-1.31-.78-1-2.47,3.53-.16,6.51,1.86,9.6,1.23a1.73,1.73,0,0,0,2.88.31c0-.36,0-.87.24-.92-.31-1.75-1.59-2.27-2.64-3.08-1.11,0-2.38,1.49-2.88-.31.21-.67,1.06-.5,1.44-.93,0-.76,0-1.49.48-1.54,1.24,0,2.37,0,2.88-.92.16-3-2.55-2.27-3.6-3.7-.59-.75.18-1.33,0-2.46-1.09-.76-2.61-1-3.12-2.47,1.3.33,1.24-1.08,1.92-1.54a2.31,2.31,0,0,0,2.16-1.54c.23-1.53-.64-1.64-.72-2.77.1-.59.93-.24.72-1.23-.31-.53-1.43,0-1.44-.93a4.3,4.3,0,0,0,1-2.77c-.31-1.34-1.7-1.3-2.16-2.46-1.19.62-2.25-1.13-3.6-1.54-1.8-.56-3.89-.23-6-.62-.56-.09-.44-1.07-1.2-.92-.32.09-.45.43-1,.3-.61-1-2.07-.83-2.64-1.84,2.69-1.23,5.71.24,8.4.3,1.56,0,3-.51,4.32.31.69,1,.8,2.68,1.68,3.39.6-1.23-1.07-2.54-.24-4a4,4,0,0,0,3.6-1.24,2,2,0,0,1,.24-2.15c-.77.12-.43-.86-.72-1.24-.16-.21-.63-.33-1-.61a13.12,13.12,0,0,0-3.11-2.16c-.8-.33-1.83-.27-2.65-.61-.32-.14-.64-.44-1-.62s-1.12-.19-1-.92a46.34,46.34,0,0,1,10.32,1.54c.87-1,1.4-3.49.25-4.62a3.8,3.8,0,0,0,.95-2.78c-1.4-2.66-4.08-1.79-6.72-2.15-.43-.06-1-.51-1.44-.62-1.09-.25-2.37,0-3.6-.31-.49-.12-.95-.55-1.44-.61-.95-.12-2,.08-2.88,0-1.3-1.11-4.05-.35-5-1.85,2,.25,3.11-.22,4.56.61a8,8,0,0,1,4.8.62,49,49,0,0,1,10.08.31,3.91,3.91,0,0,0,.73-2.77,4.35,4.35,0,0,0-2.17-1.85c-.47-.27-1-.12-1.44-.31s-.58-1.06-1.2-.93c-.83.65-3,.43-3.36-.61,1.38-.56,3.52.36,5.28.31.41-.4,0-1.85.72-1.85-.13-1.88-2-1.47-2.4-3.08,1.63-.27,5,.33,6.49.31.47-1,.94-.16,1.91-.62a5.92,5.92,0,0,0,.72-3.39,8.17,8.17,0,0,0-3.12-1.85c-.38-.11-1,.07-1.43,0-.68-.1-1.34-.54-1.93-.61a33.18,33.18,0,0,0-5.52-.31c-.14-.68-.84-.78-1.44-.93a13,13,0,0,0-5.28,0c-.87-.31-1.48-1-2.4-1.23h-2.88c-.86.08-.88-.92-1.68-.92s-1.38,1.29-1.68,0c.11-1.2.9-.27,1.44-.31a14,14,0,0,1,1.92-.31c1,.07,2,.53,3.12.62.9.07,1.79-.15,2.64,0s1.23.57,1.92.61a9.77,9.77,0,0,0,5.28-1.23,22.33,22.33,0,0,0,.24-3.7,20.87,20.87,0,0,1-2.88-1.54c-4.69-.14-8.07-2-12.95-1.85-1-1.25-3.57-.55-4.81-1.54a4.46,4.46,0,0,1-1.44.62c-.65-.19-.59-1.29-1.44-1.23-1.12,0-2.36.16-2.4-1.23,1.67-.29,3,.79,4.32,0,1.58,1,4.07-.1,5.77,1.23a3.46,3.46,0,0,1,1.91-.31c2,.44,4.47,1.24,6.24,1.54.64.11,1.22-.07,1.92,0,.88.09,1.82.54,2.64.62.42,0,.75-.31,1.2-.31,1.87,0,3.67.61,4.8-.62.08-.08-.06-.5,0-.61.2-.38,1-.59.72-1.24a3.13,3.13,0,0,0-2.4-1.84c-.34-.12-.71-.55-.95-.62-.43-.11-.77.34-1,.31s-.4-.58-.72-.62c-.54-.07-1.48,1-1.68-.31,1.85-.85,5.25,1.11,6.72-1.23-.21-1.12.43-1.64,0-2.16-1.15-1.94-3.45-1.13-5.52-1.54-.54-.1-.89-.55-1.44-.61-1.17-.14-2.29.21-3.36,0-.6-.12-1.1-.8-1.68-.62A3.61,3.61,0,0,0,493,575a3.09,3.09,0,0,0-1.68-.92c-5.27-.53-9.75-2.07-14.88-2.78.14-1.1-1.43,0-1.2-1.23,10.23-1,21.38,2,32.4.62a5.88,5.88,0,0,0,1-4c-.71-1.7-2.47-2.32-3.84-2.77-1.15-.38-2.13-.32-3.36-.62-2.7-.65-5.49-2-7.91-1.54-.46-.13-.61-.66-1.21-.61-.57-.13-.52.56-1.2.3-.5-.27-.71-.93-1.44-.92-2.33-.09-3.8-1.28-6.24-1.23a10.89,10.89,0,0,0-7-1.54c.34-1.36-1.43,0-1.44-.93.46-1.06,1.64-.6,2.16-.61,1,0,1.75.28,2.64.31.55,0,1.18-.3,1.68-.31,2.87-.09,6,.92,9.12.92.35,0,.82-.35,1.2-.31.74.08,1.44.52,2.16.62s1.48-.08,2.16,0,1.26.53,1.92.62c.46.06.72-.3,1-.31.4,0,.86.3,1.2.31,2.29.07,4.22.5,6,.3.51,0,1-.49,1.44-.61.68-.18,1.31.12,1.93-.31a8.61,8.61,0,0,0,.71-3.7c-2.25-2.85-6.57-3.06-10.79-3.39-.88-.83-2.16-.37-3.37-.61-.43-.09-1-.56-1.44-.62-.73-.1-1.55.07-2.4,0-.45-.13-.6-.66-1.2-.61-1.1-.24-2.62.08-2.88-1.24.91-.56,1.93.22,2.88.31,1.14.11,2.27-.19,3.36,0,.66.11,1.26.56,1.92.62a13.11,13.11,0,0,0,1.68-.31c.31,0,.34.31.72.31.87,0,1.63,0,2.64,0,2.87.08,5.52.87,7.68-.62a20.31,20.31,0,0,0,.24-2.46c-1.59-2.59-5.24-2.23-8.4-2.78-.79-.13-1.41-.51-2.16-.61-.59-.08-1.09.11-1.68,0-2.11-.39-4.1-1.84-5.76-.62-.19-1.29-2-.51-2.4-1.54-.73-.29-2.43.66-2.4-.61.54-1.19,1.65-.27,2.4,0,1.37-.36,2.92.22,4.57.3,1,0,2-.08,3.11,0,1.31.1,2.75.57,4.08.62.52,0,1.12-.3,1.68-.31s1.35.34,1.92.31c1.07-.06,1.94-.84,2.88-.31a20.92,20.92,0,0,0,1.92-1.85c-.18-1.16.3-1.47.24-2.46a3.7,3.7,0,0,0-1.92-1.85,6.33,6.33,0,0,0-2.16-.62c-.42-.1-.83-.55-1.2-.61a21.08,21.08,0,0,0-2.64-.31c-.31,0-.32.38-.72.31s-.57-.5-1-.62a46.4,46.4,0,0,0-7.68-1.23c-.7.08-.73-.7-1.44-.62-.83-.24-.92.46-1.68.31-.45-.55-1.23-.68-1.68-1.23-2.46,0-4.39-1.39-6.71-.62-.08-.83-1-.55-1.21-1.23,5.68-.8,11.87,1.22,18,1.54.38,0,.78-.31,1.2-.31,2.16,0,4.51.34,7,.31a5.85,5.85,0,0,0,.71-4.93c-2.61-1.78-6.71-1.64-9.84-2.77-3.34.23-6.05-1.81-8.87-1.23-1.14-1.53-3.78-1.11-5.29-2.16a4,4,0,0,1-2.4-.31c-.62-.49-1.83-.13-1.92-1.23a65.48,65.48,0,0,1,6.72,0c4.74.28,8.74,1.51,13,1.85,2,.16,4,0,6,0,1.16,0,2.37.78,3.35-.62a11.14,11.14,0,0,0,0-3.69c-.27-.51-.69-.35-1.2-.62s-.82-.78-1.2-.92-.86.14-1.44,0c-.4-.11-.81-.53-1.2-.62s-1-.19-1.44-.31a11,11,0,0,0-4.08-.31c-.47,0-.3-.84-1-.61-2.58-.12-4.53-1.17-7.2-1.24-.91-.75-2-.62-3.12-.92-.59-.15-1.28-.44-1.92-.62-1.21-.34-2.66-.37-3.6-1.23-.79.07-1.57.74-1.92-.31.45-1.34,1.56-.94,2.4-.92s1.86.55,2.64.62c.46,0,.53-.32,1-.31s.49.26,1,.31c2,.18,4.14.09,6.24.3,1,.1,1.35.59,1.92.31.25-.12.42.3.48.31,1.4.13,2.58-.09,3.84,0,1.47,1.11,3.29.73,5.28.92,2.59.26,5.84,1.32,8.4,0a8,8,0,0,0,.24-3.69c-.73-.29-1.17-1-1.92-1.23-1.9-.94-4.5-1-6.48-1.85-.89-.33-.68.76-1.44.61-.3-.53-.49-1.21-1.2-1.23a4.46,4.46,0,0,1-1.44.62,11.75,11.75,0,0,1-1.2-1.24,4.06,4.06,0,0,1-2.16.31c-.09-.57-.79-.24-1-.31-.62-.24-.71-.5-1.2-.61a6.82,6.82,0,0,0-3.36,0c-.51-.38-.69-1.16-1.44-1.23,0,.68-1,.13-1.44.3-.69-.95-2.47-.52-3.6-.92l-.72-.92c-1.66-.23-3.33-.45-4.32-1.54-.45-.15-1,.95-1-.31a36.28,36.28,0,0,1,4.8,0c.51,0,.77-.35,1.2-.31.81.08,1.59.53,2.4.62,1.82.19,4.12.17,5.28.3a19.21,19.21,0,0,0,3.12,0,9.61,9.61,0,0,1,1.2,0c4,.22,8.82,1.81,12.24.93.22-.06.22.3.24.31,1.66.14,2.83-.56,4.08-.93a6,6,0,0,0,.48-3.39c-.59-1.64-1.85-2-3.12-2.46-.09,0-.35-.57-.48-.62-.41-.15-1,.12-1.44,0s-.75-.51-1.2-.61c-1.88-.46-3.84-.92-5.52-1.24-1.06-.2-2.16-.08-3.12-.3-.42-.11-1-.53-1.44-.62s-1.15.09-1.68,0c-1.43-.24-2.75-1.05-4.08-1.23-.71-.1-1.27.07-1.92,0-1.27-.79-3.37-.83-4.8-1.24-.43-.12-1.49-.07-1.44-.92.43-1.45,1.1.41,2.16,0,8.07.07,15.83,3.67,23.28.92.21-.87.28-1.9.48-2.77a3.15,3.15,0,0,0-1.44-1.54c-.82-.53-1.49-.31-2.4-.61a19,19,0,0,0-1.92-.93c-3-.67-6.42-.18-8.88-1.54-.87-.2-.92.67-1.68.62a3,3,0,0,0-1.68-.93c-4.2.05-6.9-1.81-11-1.84-1.31-1.19-3.65-1.07-5.28-1.85.09-.84.73-.54,1.2-.62a10.88,10.88,0,0,1,2.88,0c.2.05.25-.31.24-.31,2.05,0,3.36.15,4.8,0s3.13.31,4.56,0a7.7,7.7,0,0,0,3.36.93c.45,0,1-.35,1.44-.31.77.07,1.56.52,2.4.61,1.52.17,3.84.32,4.8.31.48,0,1-.35,1.44-.31,3.66.32,8.82.19,7.2-5.23-2.16-1.7-4.95-1.74-7.68-2.16-1-.15-1.88-.51-2.88-.62-.66-.06-1.46.13-2.16,0s-1.25-.52-1.92-.61c-.86-.11-1.75.09-2.64,0-2-.21-4-1-6-1.23-.58-.08-1.31.1-1.92,0-1-.18-2.13-.75-3.12-.93-1.49-.27-3.18-.3-4.56-.61-.79-.18-1.59-.7-2.4-.93s-2,0-2.64-.92c.83-.76,1.72-.3,2.64-.31,3.9-.05,6.79.78,10.08.92,1,.05,1.9-.31,2.88-.3,1.28,0,2.55.51,3.84.61,2.12.17,3.79.07,5.52.31.63.09,1.33.56,1.92.62.41,0,.72-.33,1.2-.31,3.44.09,7.07.72,9.84-1.23.42-1.27-.16-2,.24-3.39a8.41,8.41,0,0,0-3.12-1.85c-.47-.12-1.17.06-1.92,0-3.55-.32-8.43-1.42-11.52-.93-1.51-.9-3.26-.73-5-.92s-3.68-.94-5.52-1.23c-1.19-.19-2.13-.11-2.88-.31-.51-.14-.95-.21-1.44-.31-.87-.18-2,0-2.64-.92a90.38,90.38,0,0,1,10.08-.31,22.1,22.1,0,0,0,3.12.31,14.73,14.73,0,0,1,1.92-.31c1.23.06,2.33.76,3.6.92s2.47-.07,3.6,0c3.28.2,6.07.63,9.13.31A5,5,0,0,0,508.6,449c0-1.58.35-2,0-3.39-1.63-1.27-5.08-1.58-7.2-1.23-.7-.73-1.55-.26-2.4-.31-.68,0-1.32-.28-1.68-.31s-.33.34-.72.31c-2-.14-4.07-.79-6.24-.92-.43,0-.75.32-1.2.3-3.54-.11-6.46-1.47-9.36-.92-1.87-1.71-5.79-.78-7.68-2.46.89-.49,1.87-.23,2.88-.31a16.6,16.6,0,0,1,2.4-.31c4.38.27,9.62,0,14.4.62.82.09,1.76.53,2.64.61.42,0,1-.31,1.44-.31s.92.29,1.44.31.75-.31,1.2-.31.75.31,1.2.31,1-.35,1.2-.31.6.58,1.2.62c3.54.25,7.5-.28,8.88-2.16-.21-1.17.39-2,0-2.46-1.17-2.19-4.51-1.6-6.72-2.47-.89-.33-.68.77-1.44.62-1.31-1.24-3.57-.63-4.8-.62s-2.07-.59-3.12-.61c-1-.36-.93.65-1.68.61-1.48-1.69-4-1.16-6.24-1.54-.46-.07-.93-.52-1.44-.61s-1.31.13-1.92,0-1.11-.51-1.68-.62-1.67.61-1.92-.62a61,61,0,0,1,9.6-.92c3.5,0,7.12.8,10.56.62a10.63,10.63,0,0,0,6.24-1.85c-.18-1.16.3-1.47.24-2.47-1.35-1.1-2.72-.62-4.32-.61a22.93,22.93,0,0,1-4.08-.31c-.58-.11-1.13-.55-1.68-.62s-.84.31-1,.31c-1.14,0-2.51-.82-3.6,0-.63.09-.18-1.19-1-.92a2.15,2.15,0,0,1-3.36-.62c1.5-.33,3,.31,4.32.31.46,0,.77-.36,1.2-.31.73.08,1.4.53,2.16.62,1.14.13,2.4-.42,3.36.31.62-.85,2.23,0,3.36,0,.66,0,1.37-.33,2.16-.31,1.87,0,6.17,1.41,6.72-1.54.13-.67-.34-1,0-1.54-.42-1.31-2.64-.3-2.88-1.85,1.39-.41,2.73,0,4.56-.31.7-.95,1.57-1.69,1.44-3.7-.5-2.07-2.53-1.49-1.44-2.77.68-.79-.24-1.94,0-2.77,0-.89,1-.54,1-1.54v-3.08c-4.59-1.9-10.77-1.44-16.32-1.85-3.68-.28-7.14-1.74-10.32-.93-.6-.25-.94-.84-1.68-.92-1.17-.31-1.7.38-2.16-.62,2.28-.57,5.43,0,7.68-.61,2,1.57,5.25.42,7.44,1.85,2.25-.59,5.6.41,8.64.61,1.72.12,3.38-.36,4.08.62,2.43-.66,5.31.51,7.68.92a8.65,8.65,0,0,1,2.89-1.23c.16-.91.71-1.34.47-2.77a5.63,5.63,0,0,0-2.4-1.85c-1.1-.41-2.59.19-3.36-.92-.4-1.86,1.11-1.25,1-2.78.4-.51.19-1.81.25-2.77-.73-1.44-2.4-1.66-3.61-2.46.31-1.05,1.87-.49,2.4-1.24.47-1.93-.12-2.73-.71-4,.15-.65.63-1.37.23-1.85-1.07-.14-2-1-3.12-1.23a27.64,27.64,0,0,0-3.84-.31c-6.34-.42-13.56.14-19.68-1.23-1,0-.88,1.53-1.92,1.54-.79-1-2.8-.51-4.08-.93a1,1,0,0,0,0-1.23c-1.8-.15-3.75-.11-5-.92,3.47-1.15,6.89.43,9.6-.93.5.18.69.77,1.44.62,9.09,0,15.61.42,22.8,0,.66-.49,1.11-1.25,1.92-1.54a34.29,34.29,0,0,0,6.72,0c2.34-.26,5.28.94,6.48-1.23.15-1.32-.78-1.26-.72-2.47a13.59,13.59,0,0,0-5-1.54c-1.11-.09-2.92-.31-3.36-.31a2.38,2.38,0,0,1-1,.31c-1.35-.09-2.78-.54-4.08-.62-3.22-.19-5.32-.34-7.43-1.54-.21.46-.78.45-1.21.62a4.11,4.11,0,0,0-1.68-.92c-.86.55-1.6-.23-2.4-.62-.61.28-1.36.5-1.68-.31-.95-.3-.72.92-1.68.62.09-1.13-.87-.93-1.44-1.23-2.51.31-3.24-.3-5.52,0a2.28,2.28,0,0,0-2.64-.31,1.32,1.32,0,0,0-1.2-.93c-2.84,0-5.92-.84-8.16-.61a4.61,4.61,0,0,0-4.32-.93c-.1-1-1.56-.25-1.2-1.85,4.83.26,8.67,1.51,13.2.93.36.36.59.89,1.2.92,2.24-.42,4.54.45,7,.62a23.25,23.25,0,0,1,2.64,0c.57.11,1.1.54,1.68.62,1,.12,2.07-.19,3.12,0,.52.09,1.12.55,1.68.61s1-.31,1.44-.31c5,0,10.41,1.42,14.88-.92,1.34,0,2.91.24,3.6-.62.38-2.12-.57-2.54-.72-4,3,.34,5.43,0,5-4-3-4.9-11.18-1.89-15.84-3.39-1-.22-.82,1-1.92.62-.17-.81-1.37-.29-1.44-1.23,1.86-.26,3.7.47,5.28,0,1-.29,1.51-1.25,2.41-1.54,4-.2,7.52.4,10.55,0,.46-.82.25-2.83,0-3.7C523,344,518.52,344.61,513.88,344.21ZM502.6,690.48a.82.82,0,0,1,1,.31c.19.25.05.61.23.92s.77.84,1,1.23c.07.14-.07.48,0,.62a4.14,4.14,0,0,0,1.2,1.54c.22,1.88,1.36,2.57,1.68,4.31.66-.29,2.49-.9,2.16.93-.93.29-1-1.21-1.68-.31-.21,1,.79.43,1,.92.09.92,1,.79.72,2.16-.93-.13-1.15-1.19-2.16-1.23a11.27,11.27,0,0,0-2.4-4.32c-.26-2.13-1.45-3-1.67-5.24-.21-.45-.36-1-1-.92ZM462.52,372.86c0-.3.3-.24.48-.31.67-.86,1,.27,1.68.31a35.09,35.09,0,0,1,11.76-.62c3.29.28,7-.11,9.84.31a9.63,9.63,0,0,1,1.68.31c.22.07,1.12.11,1,.92-7.06.53-14-.75-20.39,0a10.27,10.27,0,0,0-2.41.62A11.33,11.33,0,0,1,462.52,372.86Zm3.84,4.62c2.67.68,4.66,2.23,7.68,2.46,0,1-1.11.85-1.68.93a11.85,11.85,0,0,1-5.76-1.24c0-.57-.15-1-.48-1.23C466.05,377.9,466.35,377.87,466.36,377.48Zm-.24-49.3c.95-1.32,4-1.15,5.28-.3a4.14,4.14,0,0,0,2.16-.31c1.72,1.15,4.81.93,7.92,1.54a77.12,77.12,0,0,1,9.84,2.77,25.94,25.94,0,0,0,3.84.93c.23,0,1.18-.34,1,.61-1.71-.14-3.36.19-5,0-.63-.07-1-.47-1.68-.61s-1.33.09-1.91,0-1.13-.5-1.69-.62c-1.24-.27-2.43-.36-3.84-.62-1.87-.34-4.7-.38-6.72-.92-.36-.1-.63-.51-1-.62-1.07-.34-2.19-.14-3.12-.92-1.09-.38-.94.84-1.92.62C468.78,328.47,466.76,329.21,466.12,328.18Zm2.16,17.26v-.93c3.18-.64,6,0,9.12.31.63.06,1.34-.11,1.92,0,1.25.24,2.36.92,3.6,1.23s2.52.14,3.6.93c.26,1-.74.77-1,.92-.73.54-3-.4-4.56.31-.74,0-1.14-.38-1.68-.62-.74-.23-.46.85-1.2.62-.57-1.11-2.62-.33-3.59-.92-.94-.27-.86.75-1.45.92-.81-.08-1.94.24-2.4-.31.15-.63,1.22-.08,1-1.23A6.66,6.66,0,0,0,468.28,345.44Zm.72,53.91c.05-1.3,2.9-1.48,3.12-.62.38,1.1-.81.19-.72.93C470.3,399.31,469.91,400,469,399.35Zm.24-99.2a1,1,0,0,0,.72.31,1.8,1.8,0,0,0-.24.92C469,301.53,468.87,300.61,469.24,300.15Zm3.36-26.49V273c.21.06.23-.12.24-.31h.48c0,.26.1.29.24.31v.62c-.2-.06-.22.12-.24.3h-.48C472.89,273.7,472.75,273.67,472.6,273.66Zm.48,81.94v-.92c1.12.32,2.55.22,3.12,1.23.55-.15,1.23-.61,1.68,0C476.56,356.68,474.26,356.05,473.08,355.6Zm.72,4c-.07-.5.23-.53.24-.93.6,0,.75.49,1.2.62C475.21,360,474.23,359.43,473.8,359.61Zm1.44,21.56h1c.07.81-.08,1.33-.72,1.24A2.26,2.26,0,0,1,475.24,381.17Zm.24,22.8c.5-.46,1.65-1,1.68.31C476.41,404.43,476.32,403.72,475.48,404Zm.24,8.63c1.93-.2,5.23-.81,7.2.3a21,21,0,0,1,6.24,0c.51.11,1.65-.25,1.44.93-.41.54-.75-.23-1.2-.31-3.53-.63-8.83.47-12.72,0C476.62,412.89,476,412.91,475.72,412.6ZM476,262v-.62c-.16-1.2,1-.25,1.2,0a12.62,12.62,0,0,1,3.6.31c2.6.66,5.47,1.8,8.4,2.47,2.45.55,4.89.63,7.2,1.84,2.79.12,4.85,1.18,7.44,1.55-1.32,1.12-3.08.64-4.8.3-.57-.11-1.12-.17-1.68-.3s-1-.53-1.44-.62c-2.45-.47-5.05-.21-6.48-1.54-.78.5-.91-.07-1.91,0-3-1.26-6.75-1.62-9.37-3.39C477.12,261.91,476.78,262.51,476,262Zm.48,3.39c-.18-1.17,1.56-.67,1.2.31A1.3,1.3,0,0,1,476.44,265.34Zm.72,128.46c.06-.44.72-.1.72-.61,1.82-.26,3.92.21,5.76.31.64,0,1.24-.31,1.92-.31,2.77,0,6.76.38,10.08.61a15.9,15.9,0,0,1,2.64.31c.53.15,1.51.37,1.68,1.23a48.81,48.81,0,0,1-12.24.62,10.58,10.58,0,0,0-1.44-.31c-.81,0-1.41.52-2.16.62-1.73.23-3.18-.45-4.8-.31-.17-.95.66-.59.48-1.54A8.66,8.66,0,0,1,477.16,393.8Zm2.64-116.45c-.18-1.08.63-1.38,1-.92C480.83,277.24,480.43,277.44,479.8,277.35Zm.73,130.32c0-.36.05-.55.23-.62.57-.4,1.08.39,1.68.31.27,0,.56-.61,1.44-.62a33.47,33.47,0,0,1,3.84.62c.71.09,1.45-.11,2.16,0,.53.08,1.11.56,1.68.62.37,0,.85-.3,1.2-.31,1,0,1.94.53,2.88.61,5.76.54,11.29-.48,14.64,2.78-.1,1.89-1.91.69-3.12.61-2.2-.14-4.93.09-6.48-.61-.49-.62-.47.13-1,.3a4.15,4.15,0,0,0-3.36-.3c-.94-.76-2.13-.38-3.36-.62-.39-.08-.77-.51-1.2-.62-1.29-.31-2.75-.29-4.08-.61a35.44,35.44,0,0,1-5-1.54A2.17,2.17,0,0,1,480.53,407.67Zm1-130.32v-.92c1-.45,2,.29,3.12.31s2-.39,3.12-.31c2.14.15,4.13,1,6,1.23-1.48,1.25-5.14.62-6.48-.31C485.47,278.2,483.61,277,481.48,277.35Zm1.2,83.18c.06-1,1.56-.7,1.44.31C483.39,361.06,483.25,360.53,482.68,360.53Zm0-6.78c-.11-.6,1.1-1,1.2-.3C484.11,354.56,482.85,354,482.68,353.75ZM485.08,631c.33-.92,1.93-.62,1.92.62C486.19,631,485.94,631.51,485.08,631Zm.24-207.33a.75.75,0,1,1,1.44,0C485.93,423.44,485.75,424.26,485.32,423.69Zm1.2-134.32c.4-.8,1.16-.15,1.92,0s2-.28,1.92.92c-1.53,0-2-.41-3.36,0A.86.86,0,0,0,486.52,289.37Zm1,55.76v-.92c.7,0,1.35.11,1.19,1.23C488,345.69,488.06,345,487.49,345.13Zm1.91,101.66c.27-1.42,3-1.11,3.6-.31C492.16,448.93,490.77,445.63,489.4,446.79Zm.72,133.4c-.17-1.07.84-1.11,1.2-.62C491.15,580.2,490.6,580.83,490.12,580.19Zm1,57.91c.41-.48,1.11.4,1.68.62C492.81,639.92,490.53,639.52,491.08,638.1Zm.72-57.6c0-1.19,3-.61,3.6-.31C494.29,581.2,493.14,580.47,491.8,580.5Zm1.44-232.6c.11-.27.21-.55.48-.61,2.11,0,4.26-.13,5.52.92,1.16-.43,2.23-.85,3.12.31.05,1.35-1.19.3-1.68.31s-.5.33-1,.3C497.68,349,495.21,348.13,493.24,347.9ZM494,657.82c.83.06,1.56.26,1.44,1.54h-1.2C494.4,658.49,493.87,658.56,494,657.82Zm0-210.72c-.06-.5.23-.53.24-.92.61-.29,1.21.24,1.68.3s.59-.51,1-.3a3.65,3.65,0,0,1,.24.61c.61,0,1.39-.38,2.16-.31a14.54,14.54,0,0,1,2.88.62c.23,1.11-1,.55-1.2.31-.7-.08-.73.7-1.43.61C498,446.74,495.45,447.83,494,447.1Zm.48-60.69c-.07-1.31,1.28-.31,1.68-.31C496,386.79,494.94,386.23,494.44,386.41ZM499,632.56v-.92a1.15,1.15,0,0,1,1.92.92Zm.24,39.43c.17.61,1.43-.19,1.2.93C499.76,673,499.13,673,499.24,672Zm0-256.62a1.2,1.2,0,0,1,1.68-.31C501,416.62,499.68,415.76,499.24,415.37Zm.48-41.9c.75-.62,1.35.15,2.4-.31-.14.95-1.18.74-1.68,1.24A1.4,1.4,0,0,0,499.72,373.47Zm1,255.7c2-.49,5.27.78,4.81,3.39h-3.61C501.67,631.19,500.38,631.2,500.68,629.17ZM501.88,355c.11-.28.21-.55.48-.62,1.31.48,3,.46,4.32.93C505.77,356.4,503,355.6,501.88,355Zm0-65c.22-.53.45-1.07,1.2-.92C503.29,290.23,502.29,290.51,501.88,290Zm.48,57.31c.09-.41.43-.49.48-.93.43,0,.51.38,1,.31A.82.82,0,0,1,502.36,347.29Zm1.44,38.81c-.23-1.11,1-.54,1.2-.31C504.78,386.83,504.56,386,503.8,386.1Zm0-37.27c.13-1.14,1.29-.93,1.92-.62C505.67,349.17,504.53,348.73,503.8,348.83Zm.72,66.85c0-.36.06-.55.24-.62a6.64,6.64,0,0,1,3.36-.31c1.11.1,2.73-.06,2.4.93.19,1-1,.58-1.44.61a20.55,20.55,0,0,1-3.84-.3C504.86,416.07,504.83,415.69,504.52,415.68Zm.24-147.26c-.18-1.39,1.61-1.15,1.2.31A1.32,1.32,0,0,1,504.76,268.42Zm2.88,128.16c.51-.48.9-1.11,1.44-1.54,1.05.81,3.78-.53,3.84,1.54C511.51,397.23,509,397.57,507.64,396.58Zm0-40.36c0-.84,1.14-.73,1.44-.31C509.05,356.59,508.06,356,507.64,356.22Zm1.68-8.32c-.15.93-.37,1.78-1.2,1.85A1.18,1.18,0,0,1,509.32,347.9Zm-.72,25.88c.25-.69,1.61-.24,1.44.62C509.21,374.64,509,374.05,508.6,373.78ZM510,704.34c1.81.16.08,2.38,0,0Zm0-356.13c-.24-1,.75-.48,1.2-.62C511.41,348.66,510.4,348.7,510,348.21Zm2.4,8c.11-.27.21-.55.48-.62,2.58.34,6.22-.45,8.65,0,.67.13,1.86,0,1.92,1.24-2.51,0-3.4.3-6,.3.09.59.08,1.33.71,1.24a1.86,1.86,0,0,1-2.88-1.54C514.13,356.53,513.47,357.56,512.44,356.22Z"/><path class="cls-4" d="M495.64,675.38c1.65.25,3.75,2,3.85,5.24-.08.81.92.24.71,1.23-.74.48-.85-.71-1.2-1.23s-1-.89-1-2.16c-.33-.49-1.18-.33-1.44-.92q-.06-1,.72-.93C497,675.88,495.48,676.72,495.64,675.38Z"/><g class="cls-5"><path class="cls-2" d="M619.62,459.43V583.91L534.49,669H292.75l-85.12-85.13V459.43l69.86-69.87-57.82-57V208.06l85.13-85.13H522.44l85.13,85.13V332.54l-57,57Zm-92.36,90.75V485.93l-50.6-50.59H350.58L300,485.93v64.25l36.94,36.14h153.4ZM312,309.25l43.37,43.37H471.85l43.36-43.37V241.79l-36.94-36.14H349L312,241.79Z"/></g><path class="cls-6" d="M585.61,477.21c28.53-15.35,60.35-43.89,44.79-84.15s-48.74-72.76-81.1-75.13S479.46,371.86,482.64,404,518.62,513.26,585.61,477.21Z"/></g></svg>