<?xml version="1.0" encoding="utf-8"?>
<!-- Generator: Adobe Illustrator 23.0.4, SVG Export Plug-In . SVG Version: 6.00 Build 0)  -->
<svg version="1.1" id="Layer_1" xmlns="http://www.w3.org/2000/svg" xmlns:xlink="http://www.w3.org/1999/xlink" x="0px" y="0px"
	 viewBox="0 0 30 30" style="enable-background:new 0 0 30 30;" xml:space="preserve">
<style type="text/css">
	.st0{fill:#F0F1F1;}
</style>
<title>Artboard 3</title>
<g id="Footer">
	<path class="st0" d="M15,0C6.7,0,0,6.7,0,15c0,8.3,6.7,15,15,15c8.3,0,14.9-6.7,15-14.9C30,6.8,23.3,0.1,15,0C15,0,15,0,15,0z
		 M11.2,22.2H7.7V11.8h3.4V22.2z M9.4,10.4L9.4,10.4c-1,0.1-1.9-0.7-1.9-1.6c0,0,0-0.1,0-0.2c0-1,0.8-1.8,1.8-1.8c0,0,0.1,0,0.1,0
		c1,0,1.8,0.8,1.8,1.8S10.5,10.4,9.4,10.4L9.4,10.4z M23.6,22.2h-3.5v-5.6c0-1.4-0.5-2.3-1.7-2.3c-0.8,0-1.5,0.5-1.8,1.2
		c-0.1,0.3-0.1,0.6-0.1,0.8v5.8h-3.5c0,0,0-9.4,0-10.4h3.5v1.6c0.6-1.1,1.8-1.8,3.1-1.7c2.3,0,4,1.5,4,4.7L23.6,22.2z"/>
	<path class="st0" d="M16.5,13.3L16.5,13.3L16.5,13.3z"/>
</g>
</svg>
