<?xml version="1.0" encoding="utf-8"?>
<!-- Generator: Adobe Illustrator 23.0.4, SVG Export Plug-In . SVG Version: 6.00 Build 0)  -->
<svg version="1.1" id="Layer_1" xmlns="http://www.w3.org/2000/svg" xmlns:xlink="http://www.w3.org/1999/xlink" x="0px" y="0px"
	 viewBox="0 0 320.5 72" style="enable-background:new 0 0 320.5 72;" xml:space="preserve">
<style type="text/css">
	.st0{fill:#003A70;}
	.st1{fill:#E87722;}
</style>
<path class="st0" d="M84.2,4.2h10.9c1.4,2.4,2.9,5.3,4.6,8.7s3.4,7.1,5.2,10.9c1.8,3.8,3.5,7.6,5.2,11.6c1.7,3.9,3.3,7.5,4.7,10.9
	c1.4-3.3,3-6.9,4.7-10.9c1.7-3.9,3.4-7.8,5.2-11.6s3.5-7.4,5.2-10.9c1.7-3.4,3.2-6.4,4.6-8.7h10.7l5.1,65.1h-11.6l-2.5-46.7
	c0,0-1.5,3.2-2.4,5.2s-1.9,4.2-3,6.5s-2.1,4.8-3.2,7.3c-1.1,2.5-2.2,4.9-3.2,7.3c-1,2.3-2,4.5-2.9,6.6c-0.9,2-1.6,3.8-2.3,5.2h-8.8
	c-0.6-1.4-1.4-3.2-2.3-5.3s-1.8-4.3-2.9-6.6c-1-2.3-2.1-4.8-3.2-7.3s-2.2-4.9-3.2-7.2c-1.1-2.3-2.1-4.5-3-6.5s-2.4-5.1-2.4-5.1
	l-2.5,46.7H79.1L84.2,4.2z"/>
<path class="st0" d="M161.9,69.3V4.2h41.8v10.1h-30v16.1h26.7v9.9h-26.7v19.1h32.2v10.1h-44V69.3z"/>
<path class="st0" d="M235.8,3.6c9.4,0,16.6,1.7,21.6,5.2c5,3.4,7.5,8.7,7.5,15.8c0,8.8-4.4,14.8-13.1,17.9c1.2,1.4,2.5,3.2,4,5.3
	s3,4.3,4.6,6.7s3.1,4.9,4.5,7.4s2.7,5,3.9,7.5h-13.2c-1.2-2.3-2.5-4.5-3.9-6.8c-1.4-2.3-2.8-4.5-4.2-6.7s-2.8-4.2-4.2-6.1
	c-1.4-1.9-2.7-3.6-3.9-5.1c-0.9,0.1-1.6,0.1-2.3,0.1c-0.6,0-1.2,0-1.8,0h-5.7v24.6h-11.8V5.2c2.9-0.6,5.9-1,9.2-1.3
	C230.2,3.7,233.2,3.6,235.8,3.6z M236.6,13.8c-2.5,0-4.8,0.1-7,0.3v21h5.2c2.9,0,5.4-0.2,7.6-0.5c2.2-0.3,4-0.9,5.5-1.7
	s2.6-1.9,3.3-3.3c0.8-1.4,1.1-3.1,1.1-5.3c0-2-0.4-3.7-1.1-5.1c-0.8-1.4-1.8-2.5-3.2-3.3s-3.1-1.4-5-1.7
	C241.1,14,238.9,13.8,236.6,13.8z"/>
<path class="st0" d="M295.1,60.5c4.3,0,7.4-0.7,9.3-2.2c1.9-1.4,2.9-3.5,2.9-6.1c0-1.6-0.3-2.9-1-4s-1.6-2.1-2.8-3.1
	c-1.2-0.9-2.7-1.8-4.5-2.5c-1.8-0.8-3.8-1.6-6-2.3c-2.3-0.8-4.4-1.7-6.5-2.7s-3.9-2.2-5.5-3.6c-1.6-1.4-2.9-3.2-3.9-5.2
	s-1.5-4.4-1.5-7.2c0-5.9,2-10.5,6.1-13.9c4.1-3.3,9.6-5,16.6-5c4.1,0,7.7,0.5,10.8,1.4c3.2,0.9,5.7,1.9,7.5,3l-3.7,9.6
	c-2.1-1.2-4.5-2.1-7-2.7s-5.2-0.9-7.8-0.9c-3.2,0-5.7,0.7-7.5,2s-2.7,3.2-2.7,5.5c0,1.4,0.3,2.7,0.9,3.7s1.4,2,2.5,2.8
	s2.4,1.6,3.9,2.3c1.5,0.7,3.1,1.3,4.8,2c3.1,1.1,5.8,2.3,8.2,3.4c2.4,1.2,4.4,2.5,6.1,4.1s2.9,3.5,3.8,5.6c0.9,2.2,1.3,4.8,1.3,7.8
	c0,5.9-2.1,10.4-6.2,13.7c-4.2,3.2-10.3,4.8-18.3,4.8c-2.7,0-5.2-0.2-7.4-0.5c-2.2-0.3-4.2-0.8-5.9-1.3c-1.7-0.5-3.2-1-4.5-1.5
	s-2.3-1-3-1.5l3.5-9.7c1.7,0.9,4,1.9,6.9,2.8C287.5,60,291,60.5,295.1,60.5z"/>
<path class="st1" d="M59.5,61c0,0-8.9,9.4-23.8,9.4c0,0-16.6,0.7-27.7-13.9c-7.7-10-7-21.8-7-21.8S0.5,14.5,22.4,11
	c5-0.8,18.8-0.8,25.9,11.3c0,0-5-4.9-12.5-4.9s-12,4.3-14,6.5c-4.1,4.5-4.6,11.8-4.6,11.8S14.6,56.3,35.8,63
	C48.5,67.1,59.5,61,59.5,61z"/>
<path class="st0" d="M12.1,10.4c0,0,8.9-9.4,23.8-9.4c0,0,16.6-0.7,27.7,13.9c7.7,10.1,6.9,21.9,6.9,21.9S71,57,49.3,60.5
	c-5,0.8-18.8,0.8-25.9-11.3c0,0,5,4.9,12.5,4.9s12-4.3,14-6.5c4.1-4.5,4.6-11.8,4.6-11.8S57,15.3,35.9,8.5
	C23.1,4.3,12.1,10.4,12.1,10.4z"/>
</svg>
