<?xml version="1.0" encoding="utf-8"?>
<!-- Generator: Adobe Illustrator 23.0.4, SVG Export Plug-In . SVG Version: 6.00 Build 0)  -->
<svg version="1.1" id="Layer_1" xmlns="http://www.w3.org/2000/svg" xmlns:xlink="http://www.w3.org/1999/xlink" x="0px" y="0px"
	 viewBox="0 0 59 59" style="enable-background:new 0 0 59 59;" xml:space="preserve">
<style type="text/css">
	.st0{opacity:0.45;}
	.st1{fill:#A2A2A2;}
</style>
<title>Pattern</title>
<g id="Working_Here">
	<g class="st0">
		<path class="st1" d="M46,15.6c-0.4,0-0.8,0.3-0.8,0.7c0,0.4,0.3,0.8,0.7,0.8s0.8-0.3,0.8-0.7l0,0C46.8,16,46.5,15.6,46,15.6z"/>
		<path class="st1" d="M46,30.6c-0.4,0-0.8,0.3-0.8,0.7c0,0.4,0.3,0.8,0.7,0.8s0.8-0.3,0.8-0.7l0,0C46.8,31,46.5,30.6,46,30.6z"/>
		<path class="st1" d="M46,45.6c-0.4,0-0.8,0.3-0.8,0.7s0.3,0.8,0.7,0.8s0.8-0.3,0.8-0.7l0,0C46.8,46,46.5,45.6,46,45.6z"/>
		<path class="st1" d="M31,17.1c0.4,0,0.8-0.3,0.8-0.7s-0.3-0.8-0.7-0.8s-0.8,0.3-0.8,0.7l0,0C30.3,16.8,30.6,17.1,31,17.1z"/>
		<path class="st1" d="M31,32.1c0.4,0,0.8-0.3,0.8-0.7s-0.3-0.8-0.7-0.8s-0.8,0.3-0.8,0.7l0,0C30.3,31.8,30.6,32.1,31,32.1z"/>
		<path class="st1" d="M31,47.1c0.4,0,0.8-0.3,0.8-0.7s-0.3-0.8-0.7-0.8s-0.8,0.3-0.8,0.7l0,0C30.3,46.8,30.6,47.1,31,47.1z"/>
		<path class="st1" d="M16.1,15.6c-0.4,0-0.8,0.3-0.8,0.7c0,0.4,0.3,0.8,0.8,0.8s0.8-0.3,0.8-0.8l0,0C16.8,16,16.5,15.6,16.1,15.6z"
			/>
		<path class="st1" d="M16.1,30.6c-0.4,0-0.8,0.3-0.8,0.8s0.3,0.8,0.8,0.8s0.8-0.3,0.8-0.8l0,0C16.8,31,16.5,30.6,16.1,30.6z"/>
		<path class="st1" d="M16.1,45.6c-0.4,0-0.8,0.3-0.8,0.8s0.3,0.8,0.8,0.8s0.8-0.3,0.8-0.8C16.8,46,16.5,45.6,16.1,45.6z"/>
		<path class="st1" d="M1.5,17.1c0.4,0,0.8-0.3,0.8-0.8S2,15.6,1.5,15.6S0.8,16,0.8,16.4S1.1,17.1,1.5,17.1z"/>
		<path class="st1" d="M1.5,32.1c0.4,0,0.8-0.3,0.8-0.8S2,30.5,1.5,30.5S0.8,31,0.8,31.4S1.1,32.1,1.5,32.1L1.5,32.1z"/>
		<path class="st1" d="M1.5,47.1c0.4,0,0.8-0.3,0.8-0.8S2,45.5,1.5,45.5s-0.8,0.3-0.8,0.8S1.1,47.1,1.5,47.1z"/>
		<path class="st1" d="M1.8,0C0.8,0,0,0.8,0,1.7s0.8,1.7,1.7,1.7c1,0,1.7-0.8,1.7-1.7C3.5,0.8,2.7,0,1.8,0L1.8,0z"/>
		<path class="st1" d="M46,2.4c0.4,0,0.8-0.3,0.8-0.8S46.4,0.9,46,0.9s-0.8,0.3-0.8,0.8C45.3,2.1,45.6,2.4,46,2.4z"/>
		<path class="st1" d="M31,0.9c-0.4,0-0.8,0.3-0.8,0.7s0.3,0.8,0.8,0.8s0.8-0.3,0.8-0.8C31.7,1.3,31.4,0.9,31,0.9z"/>
		<path class="st1" d="M16.1,2.4c0.4,0,0.8-0.3,0.8-0.8s-0.3-0.8-0.8-0.8s-0.8,0.3-0.8,0.8S15.6,2.4,16.1,2.4z"/>
	</g>
</g>
</svg>
