<svg xmlns="http://www.w3.org/2000/svg" viewBox="0 0 15.49 14.95"><defs><style>.cls-1{fill:#f68a2e;}.cls-2{fill:#fff;}</style></defs><title>Artboard 4</title><g id="Footer"><circle class="cls-1" cx="7.75" cy="7.47" r="7.15"/><path class="cls-2" d="M9.6,3.34H6A.63.63,0,0,0,5.38,4v7.3A.63.63,0,0,0,6,11.9H9.6a.63.63,0,0,0,.63-.63V4A.63.63,0,0,0,9.6,3.34ZM6,3.63H9.6A.34.34,0,0,1,9.94,4V4.2H5.66V4A.35.35,0,0,1,6,3.63Zm3.59,8H6a.35.35,0,0,1-.35-.34V10.19H9.94v1.08A.34.34,0,0,1,9.6,11.61Z"/><path class="cls-2" d="M7.8,10.33a.57.57,0,1,0,0,1.14.57.57,0,0,0,0-1.14Zm0,.86a.29.29,0,0,1,0-.58.29.29,0,0,1,0,.58Z"/><path class="cls-2" d="M7.23,4.05H7.8a.14.14,0,0,0,0-.28H7.23a.14.14,0,1,0,0,.28Z"/><path class="cls-2" d="M8.23,4.05h.14a.14.14,0,0,0,0-.28H8.23a.14.14,0,1,0,0,.28Z"/><path class="cls-2" d="M11.6,4a.17.17,0,0,0-.21,0,.15.15,0,0,0,0,.2,1.36,1.36,0,0,1,0,1.94.15.15,0,0,0,0,.2.15.15,0,0,0,.11,0,.14.14,0,0,0,.1,0A1.67,1.67,0,0,0,11.6,4Z"/><path class="cls-2" d="M11,4.32a.14.14,0,0,0-.21,0,.15.15,0,0,0,0,.2.92.92,0,0,1,.28.66.91.91,0,0,1-.28.66.15.15,0,0,0,0,.2A.14.14,0,0,0,11,6a1.23,1.23,0,0,0,0-1.72Z"/><path class="cls-2" d="M4.21,4.19A.14.14,0,0,0,4,4,1.65,1.65,0,0,0,4,6.33a.12.12,0,0,0,.1,0,.14.14,0,0,0,.1,0,.15.15,0,0,0,0-.2A1.38,1.38,0,0,1,4.21,4.19Z"/><path class="cls-2" d="M4.81,4.28a.13.13,0,0,0-.2,0,1.22,1.22,0,0,0-.36.86A1.2,1.2,0,0,0,4.61,6a.12.12,0,0,0,.1,0,.16.16,0,0,0,.1,0,.15.15,0,0,0,0-.2.9.9,0,0,1-.27-.66.91.91,0,0,1,.27-.66A.15.15,0,0,0,4.81,4.28Z"/></g></svg>