<svg xmlns="http://www.w3.org/2000/svg" viewBox="0 0 1422.85 697.19"><defs><style>.cls-1{fill:#e0eff5;}.cls-2{fill:#49a8d1;}.cls-3{fill:#fed15e;}.cls-4{fill:#f68a2e;}.cls-5{fill:#01427b;}.cls-6{fill:#9750a3;}.cls-7{fill:#ffc01b;}</style></defs><title>Artboard 16</title><g id="Technology"><rect class="cls-1" x="93.98" y="513.46" width="44.23" height="44.23"/><rect class="cls-1" x="181.78" y="513.46" width="44.23" height="44.23"/><rect class="cls-1" x="49.1" y="557.69" width="44.23" height="44.23"/><rect class="cls-1" x="93.33" y="602.08" width="44.23" height="44.23"/><rect class="cls-1" x="4.88" y="646.43" width="44.23" height="44.23"/><path class="cls-1" d="M5.4,63.86S253.55,86.65,318.58,83.39,776.38,72,826,73.63s113,3.25,148.89,0,190-37.45,243-35.82,184.83,27.68,184.83,27.68,15.4,120.47,6.85,179.08-15.41,48.86-15.41,112.35-5.13,170.23-5.13,170.23-181.41-3.25-215.64-3.25-89-17.91-188.25-13S607.81,533.66,498.28,532,5.4,520.64,5.4,520.64Z"/><rect class="cls-2" x="1141.74" y="9.79" width="19.13" height="19.13"/><rect class="cls-3" x="1142.33" y="105.56" width="19.13" height="19.13"/><rect class="cls-2" x="1161.47" y="67.27" width="19.13" height="19.13"/><rect class="cls-1" x="1180.61" y="67.27" width="19.13" height="19.13"/><rect class="cls-4" x="1180.6" y="86.4" width="19.13" height="19.13"/><rect class="cls-5" x="1199.73" y="67.27" width="19.13" height="19.13"/><rect class="cls-6" x="1199.73" y="29.01" width="19.13" height="19.13"/><rect class="cls-4" x="1218.87" y="48.14" width="19.13" height="19.13"/><rect class="cls-7" x="1218.86" y="86.39" width="19.13" height="19.13"/></g></svg>